<?xml version="1.0" encoding="utf-8"?>
<!-- Generator: Adobe Illustrator 23.0.3, SVG Export Plug-In . SVG Version: 6.00 Build 0)  -->
<svg version="1.1" id="Layer_1" xmlns="http://www.w3.org/2000/svg" xmlns:xlink="http://www.w3.org/1999/xlink" x="0px" y="0px"
	 viewBox="0 0 1920 1080" style="enable-background:new 0 0 1920 1080;" xml:space="preserve">
<style type="text/css">
	.st0{fill:none;stroke:#E6E6E6;stroke-width:2;stroke-linecap:round;stroke-linejoin:round;stroke-miterlimit:10;}
	
		.st1{fill:none;stroke:#E6E6E6;stroke-width:2;stroke-linecap:round;stroke-linejoin:round;stroke-miterlimit:10;stroke-dasharray:12;}
</style>
<path class="st0" d="M2460,328.91c-21.63,1.56-43.24,3.36-64.88,4.62c-20.24,1.18-40.1-1.75-59.37-7.85
	c-13.19-4.18-26.31-8.74-39.06-14.09c-22.28-9.35-36.01-27.7-34.42-53.03c0.62-9.82,6.15-17.4,11.65-25.05
	c6.46-8.97,13.68-17.64,18.58-27.44c10.9-21.79,4.86-42.14-8.46-60.79c-8.63-12.08-18.35-23.36-27.19-35.3
	c-5.37-7.25-9.87-15.13-14.95-22.59c-7.1-10.42-17.18-15.41-29.67-14.8c-15.13,0.74-30.25,3.08-45.33,2.77
	c-17.22-0.35-34.61-1.65-51.55-4.68c-27.61-4.95-42.59,6.05-50.86,27.63c-3.61,9.4-6.94,18.92-11.01,28.11
	c-7.97,18-20.09,32.92-35.93,44.52c-25.46,18.65-47.41,41.09-69.53,63.37c-8.3,8.37-17.34,16.13-24.81,25.18
	c-6.91,8.36-12.79,17.74-18.03,27.27c-8.58,15.6-18.5,29.1-37.66,31.96c-13.26,1.99-26.17,0.51-39.12-2.98
	c-11.28-3.04-22.8-5.46-34.37-7.04c-19.46-2.66-37.35,3.39-52.92,14.23c-11.24,7.83-21.13,17.9-30.54,27.99
	c-10.53,11.3-21.61,21.1-36.04,27.37c-21.59,9.38-42.92,19.87-56.18,40.59c-7.45,11.64-13.32,24.32-19.68,36.65
	c-6.59,12.78-13.76,25.17-25.88,33.52c-10.26,7.07-21.82,10.34-34.31,12.03c-25.64,3.47-50.22-2.19-75.08-6.42
	c-26.26-4.47-52.6-8.55-78.95-12.48c-7.47-1.12-15.36-2.65-22.61-1.38c-24.44,4.28-25.87,22.68-18.59,38.71
	c3.11,6.85,7.87,13.37,13.21,18.72c17.1,17.13,27.95,37.41,31.76,61.13c2.82,17.6,3.97,35.46,6.48,53.12
	c3.33,23.38,4.85,47.1,13.13,69.61c7.45,20.24,18.85,38.14,31.37,55.45c1.07,1.47,2.55,2.65,3.88,3.93c7.9,7.6,14.75,9.4,24.17,4.58
	c17.7-9.06,33.06-21.32,41.16-39.89c3.96-9.08,5.82-19.59,6.32-29.57c1.3-25.64,14.35-42.16,36.99-52.37
	c22.89-10.32,46.37-18.9,71.15-23.34c10.32-1.85,20.83-2.69,31.25-4c20.58-2.6,41.33-4.32,61.71-8.05
	c22.87-4.19,38.2-20.34,52.37-37.32c13.85-16.59,25.77-35.12,43.94-47.47c12.13-8.24,25.68-14.34,38.12-22.16
	c25.75-16.18,51.9-31.86,72.77-54.61c14.24-15.51,22.31-34.56,31.33-53.13c3.66-7.54,7.58-15.14,12.57-21.82
	c9.59-12.85,24.43-15.7,38.95-16.22c20.27-0.73,37.39-6.63,49.99-22.99c17.33-22.5,34.03-22.32,57.84-10.09
	c16.27,8.36,33.65,11.66,51.62,11.53c15.9-0.11,31.8-1.25,47.68-2.26c13.41-0.85,25.03,3.76,35.08,11.9
	c10.6,8.58,20.25,18.31,30.63,27.19c11.87,10.16,17.56,23.62,19.3,38.38c3.63,30.79,12.29,60.13,22.71,89.14
	c2.86,7.97,4.33,16.55,5.5,24.97c1.43,10.36-5.97,18.94-19.41,19.2c-26.55,0.52-47.04,13.46-67.33,28.31
	c-10.82,7.91-22.45,14.93-34.36,21.1c-20.39,10.56-42.19,11.58-64.83,9.08c-15.45-1.7-31.33-1.38-46.83,0.04
	c-10.66,0.97-20.5,6.84-28.04,14.61c-13.3,13.71-24.15,29.27-32.24,46.74c-12.42,26.82-6.1,50.76,10.18,73.54
	c4.7,6.58,8.81,13.58,13.35,20.28c7.86,11.6,6.72,23.74,0.58,35.09c-7.84,14.48-17.29,28.08-25.54,42.35
	c-11.21,19.38-22.24,38.89-32.79,58.64c-6.66,12.47-16.06,22.33-26.72,31.16c-9.26,7.68-17.3,16.03-20.31,28.18
	c-2.61,10.51,4.35,24.85,18.79,24.53c11.44-0.25,20.5-5.17,29.67-10.5c16.47-9.57,33.96-16.4,52.39-21.1
	c21.16-5.39,40.94-14.29,59.35-25.87c18.73-11.79,27.11-30.06,29.88-51.46c0.59-4.52,1.9-9.17,3.92-13.24
	c4.94-9.92,14.68-13.42,23.13-6.84c10.72,8.33,20.37,18.15,29.82,27.97c15.88,16.5,25.08,36.77,31.37,58.54
	c7.39,25.54,17.66,49.61,35.9,69.6c6.97,7.64,13.48,15.69,20.37,23.4c14.28,15.98,21.63,35.58,27.05,55.59
	c6.41,23.69,18.43,42.61,39.41,55.35c15.16,9.21,30.56,18.05,46.12,26.57c15.26,8.35,31.89,12.22,49.2,13.4
	c3.93,0.27,7.82,1.01,11.73,1.53"/>
<path class="st1" d="M2460,1232.5c-18.5-0.52-37.03-0.6-55.49-1.73c-10.81-0.67-20.99-3.6-29.03-12.25
	c-17.39-18.7-36.32-35.69-56.8-51.12c-12.26-9.24-18.38-23.23-22.07-38.08c-2.79-11.22-5.03-22.64-8.74-33.56
	c-5.51-16.22-15.83-29.85-27.35-42.12c-19.22-20.47-33.49-44.17-47.56-68.13c-3.44-5.85-6.67-11.99-11.02-17.12
	c-12.82-15.1-26.92-20.45-47.56-14.91c-25.45,6.83-49.44,17.54-73.5,28.06c-18.84,8.24-37.42,16.9-54.72,28.14
	c-14.73,9.57-29.38,19.32-44.63,28.01c-11.4,6.49-24.3,8.94-37.4,7.08c-12.03-1.71-19.83-9.78-24.96-20.23
	c-8.03-16.33-10.05-33.36-7.4-51.6c2.37-16.31,5.96-31.78,16.87-44.37c4.78-5.51,10.76-10.5,17.13-14.04
	c28.92-16.05,49.36-40.05,65.52-68.2c4.7-8.18,8.89-16.66,13.33-24.99c8.55-16.04,7.08-31.75-0.67-47.74
	c-5.54-11.44-11.03-23.08-14.76-35.18c-7.68-24.93-7.19-49.77,5.31-73.38c8.07-15.25,16.2-30.5,25.08-45.29
	c9.74-16.24,24.52-24.7,43.65-23.38c17.24,1.19,34.48,2.99,51.58,5.45c30.61,4.41,58.08-0.81,81.4-22.68
	c11.7-10.97,22.5-22.48,31.26-36c9.78-15.09,13.67-31.79,14.69-49.31c1.02-17.62-1.46-34.71-9.28-50.82
	c-8.76-18.05-24.29-29.36-39.9-40.63c-14.22-10.26-30.36-14.77-47.68-15.64c-10.16-0.51-20.32-1.18-30.49-1.53
	c-16.34-0.55-31.59,3.7-46.12,10.91c-16.1,7.99-31.67,17.36-50.03,19.53c-9.63,1.14-19.3,1.96-28.92,3.17
	c-17.81,2.25-30.76,11.9-40.71,26.5c-10.42,15.29-21.31,30.26-31.99,45.38c-10.45,14.78-25.2,24.36-40.69,32.74
	c-20.91,11.3-42.58,21.26-63.15,33.12c-20.7,11.94-36.83,29.16-50.21,48.99c-4.77,7.07-10.25,13.67-15.58,20.36
	c-14.45,18.12-34.1,26.94-56.26,31.3c-26.07,5.13-52.07,10.66-78.19,15.51c-14.23,2.65-28.81,3.49-42.92,6.58
	c-12.75,2.8-25.13,8.07-31.84,20.23c-3.29,5.97-4.46,13.32-5.58,20.21c-1.38,8.5-1.66,17.18-2.5,25.77
	c-1.56,16.11-12.07,27.36-22.9,37.25c-16.82,15.36-30.9,32.51-41.05,52.71c-8.47,16.87-15.76,34.33-23.6,51.51
	c-0.39,0.84-1.14,1.52-1.53,2.36c-6.59,14.38-12.77,13.76-24.28,6.3c-12.62-8.18-25.58-15.57-40.59-18.89
	c-34.99-7.75-64.72,22.71-64.34,50.11c0.32,23.04,11.09,39.1,29.14,51.6c5.53,3.83,11.04,7.69,16.4,11.74
	c7.02,5.3,8.76,12.21,3.81,19.43c-7.89,11.51-16.31,22.68-24.95,33.65c-17.23,21.9-38.82,38.78-62.47,53.2
	c-11.78,7.18-24.43,11.13-38.31,10.95c-5.99-0.08-12.01,0.33-17.97-0.07c-26.26-1.75-51.99,2.37-77.33,8.13
	c-21.06,4.79-38.64,0.33-53.99-14.33c-19.09-18.24-33.87-39.22-41.48-64.86c-3.86-13-8.87-25.55-17.96-35.95
	c-11.01-12.6-25.56-17.33-41.36-14.6c-23.72,4.1-45.67,13.45-65.74,27.03c-10.55,7.14-19.11,15.9-20,28.99
	c-0.54,7.97,1.19,16.27,2.96,24.18c3.76,16.77,7.79,33.5,12.5,50.02c4.97,17.43,17.24,29.19,32.76,37.46
	c16.45,8.76,33.21,16.96,50,25.06c22.09,10.65,32.8,28.61,36.06,52.4c3.92,28.61,5.52,57.81,15.77,85.12
	c5.29,14.11,13.36,27.16,20.04,40.76c4.31,8.79,8.36,17.7,12.53,26.56"/>
<path class="st1" d="M236.97,1382.97c-3.65-1.17-7.32-2.28-10.94-3.53c-19.43-6.73-36.28-17.52-49.98-32.86
	c-12.25-13.72-19.9-29.47-17.93-48.41c1.3-12.54,6.45-23.77,13.13-34.44c9.08-14.48,19.13-27.9,33.64-37.53
	c12.17-8.07,26.09-10.85,39.9-13.99c15.35-3.5,30.91-6.18,46.07-10.33c23.73-6.49,38.47-22.83,47.84-45.15
	c9.57-22.8,16.17-46.4,21.83-70.38c5.7-24.18,3.23-47.73-3.92-71.16c-2.91-9.55-6.33-19.13-7.55-28.94
	c-1.12-8.95,1.86-17.97,6.82-25.69c5.03-7.84,10.88-15.15,16.31-22.74c8.39-11.72,8.49-28.45,0.14-41.51
	c-12.43-19.43-28.92-34.62-47.03-48.38c-22.25-16.9-32.11-39.73-34.7-67.2c-1.88-19.9-1.35-40.31-8.99-59.47
	c-4.09-10.26-8.98-19.47-17.92-26.72c-11.09-8.99-25.79-9.06-37.53,0.33c-9.47,7.57-17.72,16.65-26.75,24.8
	c-4.67,4.22-9.52,8.42-14.86,11.68c-17.6,10.73-37.64,1.61-47.64-16.3c-10.73-19.21-8.73-38.42,3.53-55.23
	c9.56-13.11,21.72-24.71,34.21-35.22c18.14-15.27,30.48-34.03,38.84-55.75c8.3-21.54,16.31-43.2,24.19-64.89
	c1.63-4.48,2.68-9.3,3.11-14.05c1.03-11.24-5.68-17.44-14.66-22.8c-12.44-7.42-26.38-9.63-39.97-13.07
	c-24.69-6.25-49.67-11.4-74.19-18.23c-25.27-7.04-44.92-22.5-59.45-44.38c-1.88-2.83-3.9-5.6-5.44-8.62
	c-6.88-13.54-19.02-19.13-32.85-22.72c-15.46-4.01-30.08-9.64-41.54-21.72c-7.83-8.25-11.36-17.92-7.4-28.1
	c4.31-11.06,14.81-15.52,26.25-15.61c14.06-0.11,28.16,1.67,42.2,1.19c14.04-0.47,27.49-4.29,39.91-11.45
	c17.69-10.2,29.19-25.89,39.01-43.07c14.28-24.98,35.25-41.66,62.6-49.9c25.9-7.8,51.78-16.21,78.24-21.45
	c17.15-3.4,35.35-1.21,53.04-2.22c13.82-0.8,27.64-2.29,40.66-7.69c19.14-7.94,31.3-22.37,38.26-41.45
	c8.01-21.94,13.19-44.39,13.51-67.99c0.21-15.38-5.12-28.22-14.3-39.83c-11.03-13.95-22.11-27.87-33.65-41.39
	c-9.01-10.55-20.8-17.8-33.6-22.54c-16.9-6.26-34.11-11.97-51.58-16.36c-16.15-4.06-32.43-3.36-47.65,5.16
	c-9.45,5.29-19.25,9.96-28.89,14.92c-15.78,8.12-32.05,14.7-49.14,19.89c-17.94,5.45-35.4,12.92-52.38,20.96
	C68.63,0.51,48.69,6.55,28.28,11.6c-21.16,5.24-42.05,11.6-60.91,22.74C-57.12,48.8-71.88,71.02-81.3,97.49
	c-6.34,17.82-9.37,35.87-9.44,54.76c-0.06,14.86-0.43,29.99-3.25,44.49c-4.86,25-20.58,34.38-45.81,30.64
	c-22.81-3.38-41.81-14.73-60.12-27.53c-15.12-10.57-29.42-22.31-44.72-32.58c-10.59-7.11-23.33-8.62-35.83-10.43
	c-13.09-1.9-26.2-4.05-39.06-7.11c-10.37-2.47-19-9.13-23.26-18.69c-11.94-26.78-33.47-43.77-57.33-58.45
	c-34.19-21.04-71.82-32.98-110.95-40.74c-9.67-1.92-19.29-4.14-28.93-6.23"/>
<path class="st0" d="M172.87,1382.58c-10.68-12.77-22.41-24.82-31.78-38.48c-11.45-16.69-16.7-35.92-10.88-56
	c2.8-9.67,7.95-19.16,13.99-27.27c10.03-13.45,20.91-26.44,32.76-38.31c15.45-15.48,36.17-20.08,56.85-24.57
	c15.54-3.38,31.27-6.91,46.04-12.64c23.68-9.18,37.26-28.89,46.93-51.34c7.93-18.42,13.02-37.88,13.82-57.82
	c0.64-15.94-3.36-31.49-13.74-44.54c-6.23-7.83-12.54-15.61-18.75-23.46c-10.9-13.77-17.92-29.7-18.2-46.9
	c-0.18-10.89,3.97-22.38,8.3-32.71c7.43-17.76,6.52-34.14-5.04-49.29c-18.39-24.1-31.85-50.9-44.49-78.22
	c-0.63-1.37-1.59-2.59-2.32-3.92c-5.27-9.66-8.09-13.69-18.07-3.2c-10.29,10.83-22.22,19.33-36.61,24.43
	c-20.39,7.22-38.36,0.92-48.51-16.53c-13.79-23.72-27.86-47.28-41.34-71.18c-9.38-16.64-10.05-34.23-4.05-52.34
	c8.18-24.68,21.24-45.61,42.1-61.94c16.4-12.84,31.17-27.58,40.89-46.66c7.34-14.41,13.02-29.2,14.79-45.38
	c2.97-27.26-5.92-42.12-35.23-52.28c-18.06-6.26-36.39-11.73-54.69-17.26c-31.21-9.42-60.2-23.36-86.72-42.29
	c-19.43-13.86-38.58-28.11-57.87-42.17c-25.45-18.55-37.98-43.59-37.46-75.04c0.14-8.6,0.76-17.22,1.56-25.79
	c1.02-10.84,4.98-13.95,17.14-14.07c19.23-0.19,38.27-1.84,57.07-6.2c16.79-3.89,31.96-11.37,44.36-22.92
	c17.3-16.1,37.07-26.26,59.43-33.88c30.59-10.42,60.08-24.05,90.05-36.28c16.66-6.8,33.27-13.76,50.05-20.26
	c12.93-5.01,26.18-4.43,39.88-2.74c12.58,1.55,25.67,1.66,38.22,0.04c23.18-2.99,36.35-18.78,43.68-39.62
	c6.02-17.14,7.17-34.8-1.6-51.45c-4.79-9.09-10.7-17.76-17.17-25.77c-8.8-10.89-18.24-21.34-28.09-31.29
	C304.5-28.75,287.13-35,268.27-38.65c-20.87-4.04-39.63,1.6-57.84,10.41C188.26-17.5,164.74-11.73,140.92-6
	c-22.1,5.32-43.42,13.99-64.96,21.52c-17.82,6.23-35.52,12.8-53.15,19.54C9.92,39.99-1.56,47.36-11.6,56.89
	c-15.5,14.71-29.66,30.57-41.42,48.47c-11.37,17.31-17.64,36.21-17.17,57.05c0.33,14.33,1.6,28.67,1.35,42.99
	c-0.23,13.3-1.09,26.71-3.23,39.82c-1.51,9.23-3.1,9.74-12.21,10.42c-37.9,2.83-70.86-11.22-103.24-28.26
	c-15.87-8.35-32.08-16.12-48.46-23.44c-19.61-8.77-39.61-6.59-59.34-0.04c-12.36,4.1-24.2,10.24-36.82,12.95
	c-32.71,7.02-67.62-11.7-72.56-47.41c-1.51-10.88-2.36-21.86-3.16-32.82c-1.64-22.4-13.28-39.21-29.78-53.1
	c-24.66-20.75-53.76-26.96-85.16-25.04c-5.74,0.35-11.47,1.02-17.2,1.54"/>
<path class="st0" d="M1303.15-302.67c-0.78,2.34-2.21,4.68-2.24,7.04c-0.19,17.45,0.43,34.93-0.27,52.36
	c-0.61,15.34-2.67,30.77-10.11,44.5c-13.92,25.68-35.42,38.38-67.91,32.21c-15.52-2.94-31.32-4.38-46.86-7.25
	c-15.77-2.92-29.41-10.77-42.26-20.16c-9.95-7.28-20.55-12.58-33.59-11.94c-7.73,0.38-12.14,3.43-15.83,10.22
	c-5.58,10.28-3.52,20.39-1.29,30.58c3.9,17.78,7.06,35.79-0.29,53.07c-7.6,17.88-15.7,35.8-25.91,52.26
	c-11.86,19.13-26.61,36.44-39.37,55.04c-5.65,8.24-10.96,17.11-10.39,28.03c0.43,8.31,3.69,14.65,11.83,17.08
	c8.34,2.49,16.54,3.83,25.81,2.96c18.08-1.7,36.43-0.37,54.67-0.53c21.37-0.19,42.78,4.72,64.13-1.41
	c16.26-4.67,30.01-13.98,44.58-21.89c10.64-5.77,21.57-11.18,32.83-15.58c15.38-6.01,31.43-5.82,46.78-0.01
	c19.77,7.48,39.18,15.92,58.67,24.11c15.38,6.47,18.57,19.11,14.04,34.35c-6.36,21.41-13.73,42.55-19.3,64.16
	c-6.09,23.59-20.12,40.7-39.22,54.75c-12.99,9.55-19.46,23.23-21.07,39.01c-1.48,14.55-1.86,29.2-3.3,43.76
	c-1.74,17.49-4.56,34.88-6,52.39c-0.92,11.13-0.37,22.4-0.11,33.6c0.21,9.13,0.5,18.3,1.61,27.35c1.73,14.11,3.1,28.31,11.47,40.76
	c4.39,6.53,9.81,9.66,17.34,9.25c16.68-0.92,33.36-1.99,50.03-3.11c13.23-0.89,24.99,3.54,35.92,10.25
	c20.99,12.87,43.23,22.87,67.29,27.92c26.91,5.65,54.11,6.45,81.26,0.92c17.38-3.54,29.64-14.43,39.86-28.14
	c6.57-8.82,12.97-17.76,19.57-26.56c13.05-17.42,30.87-29.03,49.26-39.83c14.56-8.55,28.42-17.88,39.86-30.51
	c21.45-23.67,47.94-40.59,75.82-55.48c20.78-11.1,42.78-12.53,65.66-7.97c17.36,3.46,32.34,0.28,44.85-14.47
	c9.33-11.01,21.37-19.79,32.55-29.14c22-18.41,44.35-36.41,66.37-54.81c15.03-12.56,29.88-25.33,44.55-38.31
	c14.11-12.49,20.53-29.32,25.96-46.81c4.34-14,9.51-27.76,14.82-41.43c3.67-9.46,10.62-16.07,21.03-17.02
	c5.1-0.46,10.58,0.76,15.58,2.24c12.87,3.82,25.41,8.82,38.37,12.27c29.67,7.91,55.38-0.33,77.27-21.07
	c8.55-8.1,16.17-17.17,24.33-25.7c7.93-8.3,18.01-12.97,28.93-15.55c13-3.07,26.33,4.82,33.55,19.46
	c5.68,11.53,8.22,23.93,8.59,36.72c0.25,8.59,0.67,17.25-0.08,25.78c-1.63,18.59,3.39,35.86,12.12,51.45
	c17.36,31.01,20.75,64.26,19.18,98.64c-0.42,9.15-2.27,18.22-2.96,27.37c-0.94,12.5,4.64,22.2,14.84,28.83
	c18.46,12.01,38.7,19.18,60.92,19.56c17.71,0.31,35.43,0.06,53.15,0.06"/>
<path class="st1" d="M1339.1-302.67c-1.04,1.3-2.52,2.45-3.06,3.93c-6.59,18.24-10.94,36.97-13.46,56.24
	c-4.37,33.32-14.27,64.29-40.54,87.56c-15,13.28-31.61,19.55-52.42,16.86c-16.14-2.09-33.08-5.01-49.13,1.26
	c-9.41,3.68-19.01,7.69-27.25,13.38c-13.87,9.58-27.5,19.79-39.85,31.23c-18.45,17.08-30.53,38.44-36.08,63.13
	c-3.05,13.56,4.55,26.06,20.31,31.92c27.61,10.25,55.06,10.95,82.07-2.93c18.03-9.26,36.33-18.03,54.71-26.58
	c13.88-6.45,28.27-7.91,43.78-5.86c25.63,3.39,51.23,7,77.34,6.93c27.71-0.08,52.7,9.62,74.33,27.68
	c16.19,13.52,16.58,32.55,8.35,50.03c-3.07,6.51-7.64,12.53-12.45,17.95c-7.08,7.98-14.96,15.25-22.55,22.77
	c-13.5,13.35-19.08,29.91-21.32,48.44c-1.83,15.09-1.91,30.56-9.71,44.71c-5.62,10.19-13.67,17.05-22.86,23.38
	c-8.28,5.7-16.69,11.38-24.16,18.05c-10.27,9.18-14.24,21.61-16.72,35.01c-3.74,20.28-3.19,40.65-2.75,61
	c0.25,11.37,2.53,22.51,8.24,32.92c5.98,10.91,15.69,15.24,26.76,16.1c17.39,1.36,34.89,1.55,52.35,1.71
	c20.52,0.19,35.38,7.49,44.93,27.25c10.09,20.88,27.82,32.21,51.98,34.04c28.76,2.19,52.37-7.08,71.9-27.64
	c19.31-20.32,41.74-36.46,65.65-50.85c18.91-11.37,34.6-26.54,49.41-42.81c6.8-7.46,14.78-13.91,22.58-20.39
	c16.8-13.97,33.93-27.55,50.73-41.52c11.86-9.86,25.77-13.59,40.66-15.72c19.62-2.82,39.8-2.43,58.66-9.99
	c25.04-10.03,48.34-22.81,68.82-40.63c20.08-17.47,40.48-34.59,60.95-51.61c23.39-19.45,37.68-43.44,40.86-74.27
	c1.9-18.33,5.51-36.5,12.09-54.02c5.66-15.07,15.73-24.69,31.46-25.32c11.02-0.44,22.61,1.92,31.98,9.04
	c8.84,6.71,17.17,14.1,25.86,21.02c21.16,16.84,45.09,12.72,60.08-7.86c10.61-14.57,19.51-30.58,33.79-42.03
	c12.35-9.91,25.47-18.84,38.21-28.26c10.78-7.98,17.86-17.79,14-32.02c-2.51-9.25-7.84-16.69-15.49-22.78
	c-12.47-9.91-26.97-13.1-42.27-14.86c-14.92-1.72-30.32-1.99-43.77-10.09c-15.73-9.48-23.51-24.66-28.93-41.4
	c-2.94-9.1-6.31-18.1-8.5-27.38c-6.09-25.73-23.56-40.19-46.99-49.26c-10.78-4.18-21.38-8.82-32.06-13.24
	c-12.47-5.17-22-14.04-30.48-24.23"/>
<path class="st0" d="M1786.99-303.45c-5.08,18.07-16.48,29.69-35.2,32.65c-8.43,1.33-17.35,1.95-25.73,0.72
	c-21.3-3.12-42.58-7.37-64.12-5.8c-32.1,2.34-63.99,7.09-92.16,24.17c-22.52,13.65-36.39,33.21-36.06,60.82
	c0.11,9.12-0.4,18.26,0.12,27.35c0.69,12.07-2.1,23.51-6.54,34.32c-7.35,17.91-11.15,36.22-12.67,55.55
	c-1.59,20.18-6.52,40.08-8.81,60.24c-1.44,12.66-1.91,25.55,1.26,38.3c4.17,16.75,6.33,34.32,17.38,48.36
	c14.37,18.26,33.61,27.69,56.95,27.27c8.61-0.15,15.3-5.19,20.37-12.31c5.87-8.24,7.87-17.45,8.7-27.38
	c1.17-14.01,2.57-28.03,9.95-40.7c10.96-18.81,23.98-19.87,37.57-1.51c5.55,7.5,10.65,15.34,16.49,22.61
	c12.97,16.15,30.58,23.23,50.74,25.08c24.14,2.22,46.93-4.4,69.52-11.14c21.54-6.43,44.42-9.26,64.06-21.07
	c13.48-8.11,26.18-17.52,39.16-26.44c23.5-16.14,47.34-31.62,75.04-39.87c10.98-3.27,21.84-6.93,32.85-10.1
	c16.8-4.85,24.34-25.54,21.2-42.27c-3.69-19.68-16.92-32.85-30.76-45.12c-14.89-13.2-27.24-28.01-36.6-45.51
	c-12.7-23.74-28.09-45.52-45.89-65.85c-15.55-17.78-26.3-38.52-29.9-62.36"/>
<path class="st0" d="M-540,269.5c10.68,8.08,21.76,15.68,31.96,24.33c18.77,15.93,38.71,29.5,62.59,36.73
	c10.08,3.05,19.81,7.25,29.74,10.83c14.43,5.21,26.96,12.85,36.01,25.76c14.75,21.06,32.97,38.93,53.16,54.67
	c17.3,13.48,29.18,31.43,42.15,48.55c14.77,19.51,27.86,40.43,46.19,56.98c8.93,8.06,18.33,15.7,28.14,22.64
	c14.74,10.41,28.5,21.87,37.26,37.73c11.68,21.14,27,38.86,46.35,52.97c20.88,15.23,31.02,37.23,39.79,60.28
	c4.6,12.08,7.95,24.3,7.17,37.52c-0.73,12.38-8.26,21.22-20.42,20.07c-13.13-1.24-26.08-4.43-39.11-6.79
	c-18.66-3.38-37.14-4.4-54.71,4.71c-10.83,5.62-18.86,14.04-24.25,24.99c-2.57,5.23-5.5,10.3-7.76,15.66
	c-9.29,22.04-26.83,33.15-49.27,38.38c-8.48,1.98-16.8,4.83-25.02,7.77c-22.38,8.01-31.51,26.86-37.41,47.66
	c-5.34,18.82-7.37,38.2-6.34,57.8c0.25,4.7,1.06,9.38,1.51,14.07c2.04,21.36-3.93,41.47-9.18,61.8c-3.1,11.98-4.49,24.42-6.41,36.7
	c-3.22,20.66,2.01,41.12,1.7,61.75c-0.18,12.46-4.81,22.63-14.39,29.49c-14.55,10.43-29.57,20.42-45.29,28.94
	c-36.16,19.61-72.83,38.27-109.36,57.2c-4.75,2.46-9.87,4.22-14.82,6.31"/>
<path class="st0" d="M1878.45,1382.58c9.38-12.51,18.29-25.41,28.25-37.43c15.03-18.13,22.03-39.59,27.17-61.86
	c4.31-18.67,7.76-37.53,11.84-56.25c4.09-18.75,1.47-36.6-6.27-53.95c-7.63-17.08-17.35-33-29.92-46.71
	c-9.97-10.88-23.4-17.11-37.29-22.17c-6.21-2.26-12.06-5.56-18.01-8.51c-17.1-8.49-21.84-24.43-25.06-41.41
	c-4.04-21.34-6.49-43.26-21.06-60.98c-10.65-12.94-24.22-17.15-40.66-14.95c-31.37,4.2-57.88,19.62-84.43,35.24
	c-17.1,10.06-35.07,17.53-55.48,17.28c-14.48-0.18-26.85-5.41-37.5-14.92c-9.22-8.23-18.02-16.94-27.43-24.93
	c-18.91-16.06-42-22.49-65.63-27.33c-5.35-1.1-10.99-0.76-16.39-1.72c-15.71-2.77-24.45,14.16-19.2,27.28
	c3.93,9.84,9.97,19.41,17.08,27.28c14.31,15.84,29.84,30.59,45.14,45.51c16.77,16.36,24.64,36.12,25.98,59.43
	c1.14,19.78,4.22,39.34,17.68,55.57c11.89,14.32,27.59,22.19,44.63,28.07c15.34,5.29,30.91,9.98,46.07,15.77
	c18.44,7.04,34.66,18.17,49.14,31.32c13.69,12.44,27.08,25.33,36.23,41.97c7.72,14.03,12.31,28.87,13.86,44.63
	c1.46,14.81,2.17,29.69,3.22,44.55"/>
<path class="st0" d="M-539.22,306.24c9.9,6.25,19.79,12.53,29.71,18.75c21.68,13.6,45.76,21.74,69.58,30.45
	c20.82,7.61,37.72,20.12,51.82,37.36c7.74,9.46,16.91,18.69,27.31,24.88c33.46,19.91,58.54,47.92,80.21,79.36
	c20.04,29.07,44.34,53.95,71.23,76.53c11.11,9.32,18.6,21.21,24.22,34.39c6.68,15.66,14.7,30.34,27.27,42.31
	c7.06,6.72,14.19,13.8,19.42,21.93c10.45,16.25,2.74,32.66-14.65,36.49c-7.42,1.64-15.1,3.12-22.64,3.06
	c-31.75-0.24-60.08,10.16-87.66,24.97c-29.65,15.93-54.06,38.46-79.57,59.67c-10.49,8.72-20.91,17.65-30.39,27.44
	c-9.76,10.07-10.38,23.48-9.4,36.58c0.98,13.07,3.12,26.05,4.54,39.1c2.69,24.74,6.04,49.45,7.56,74.27
	c0.99,16.32-0.67,32.82-1.32,49.23c-0.28,7.04-1.14,14.06-1.49,21.11c-0.63,12.76-0.52,25.58-1.73,38.29
	c-1.65,17.47-1.82,35.49-12.39,50.81c-8.59,12.45-20.46,21.33-32.79,29.75c-28.68,19.59-59.66,34.78-91.46,48.46
	c-9.21,3.96-18.25,8.31-27.37,12.47"/>
<path class="st0" d="M-511.08-303.45c14.33,20.32,28.47,40.78,43.05,60.93c12.03,16.62,28.87,24.16,49.19,24.26
	c13.29,0.07,26.59-0.38,39.86,0.12c13.17,0.5,26.1,2.96,37.49,10.1c15.84,9.93,24.11,25.24,27.15,42.98
	c2.28,13.34,2.73,27.04,3.22,40.61c0.29,8.05-1.6,16.18-1.21,24.22c0.38,7.86,2.38,15.65,3.71,23.46
	c2.03,11.9,10.96,16.51,21.11,19.5c17.08,5.03,34.65,7.97,50.93,16.19c19.63,9.91,36.64,23.13,50.35,39.62
	c15.46,18.61,34.01,29.99,57.36,35.02c20.71,4.46,25.04,12.68,21.29,34.3c-1.96,11.31-2.66,22.88-3.19,34.37
	c-0.87,18.74-0.81,37.53-1.8,56.27c-0.46,8.64-0.81,17.9-4.09,25.67c-8.26,19.56-22.56,23.49-42.61,16.39
	c-18.14-6.43-32.73-18.34-44.58-33.47c-5.4-6.89-10.74-13.86-15.61-21.12c-11.17-16.65-26.27-27.33-45.27-33.92
	c-10.07-3.49-20.26-9.12-27.98-16.36c-17.31-16.24-33.5-33.74-49.36-51.44c-8.07-9.01-16.21-15.61-29.1-14
	c-7.76,0.97-15.62,1.28-23.44,1.62c-25.27,1.09-49.51-4.77-73.44-11.8C-492.17,12.97-516.03,5.04-540-2.51"/>
<path class="st1" d="M-539.22,1197.33c3.65-1.3,7.2-3.06,10.96-3.84c43.12-8.88,81.1-27.83,113.28-57.96
	c13.49-12.62,19.89-28.69,22.92-46.82c3.27-19.53,3.57-39.1,2.72-58.65c-1.16-26.99-8.62-52.58-22.65-75.73
	c-8.26-13.64-21.34-22.63-34.98-30.62c-7.67-4.49-15.45-8.9-22.61-14.14c-11.18-8.17-16.01-19.75-7.57-32.52
	c13.59-20.55,25.47-41.95,37.25-63.5c7.38-13.5,19.98-20.61,33.52-26.69c17.16-7.7,33.52-16.86,46.92-30.41
	c16.14-16.32,32.48-32.43,51.63-45.28c17.25-11.58,36.22-19.75,55.43-27.49c12.76-5.15,25.5-10.82,35.14-21.08
	c11.93-12.69,12.8-28.39,10.14-44.47c-2.16-13.11-7.55-25.18-17.22-34.29c-27.53-25.94-50.07-56-72.55-86.13
	c-18.87-25.3-40.81-46.64-70.32-59.53c-16.5-7.21-27.55-21.21-38.34-35.04c-12.53-16.05-28.75-26.79-47.71-33.57
	c-26.54-9.48-53.14-18.81-79.73-28.13c-2.25-0.79-4.68-1.08-7.02-1.6"/>
<path class="st1" d="M646.56,1382.58c10.86-20.26,30.47-28.85,50.03-37.52c31.06-13.77,57.13-32.84,72.02-64.83
	c13.32-28.63,29.25-56.16,40.85-85.44c12.05-30.42,21.31-62.07,29.74-93.73c4.12-15.47,3.71-32.18,5.08-48.35
	c0.81-9.62,1.46-19.28,1.47-28.92c0.01-5.47-0.9-11.08-2.31-16.39c-2.84-10.68-6.87-13.77-17.87-14.06
	c-24.75-0.65-49.52-1.93-74.25-1.33c-18.71,0.46-36.9,5.45-54.75,11.35c-13.06,4.32-26.06,8.46-37.53,16.45
	c-11.58,8.07-18.99,19.43-25.71,31.35c-7.73,13.71-14.72,27.85-22.79,41.36c-21.26,35.57-50.65,63.14-85.95,84.38
	c-22.9,13.77-46.1,27.08-69.59,39.81c-15.16,8.22-31.87,11.48-49.15,12.87c-13.34,1.08-27.16,1.62-39.09,9.18
	c-15.81,10.03-22.89,26.13-27.06,43.05c-4.48,18.17-6.8,36.89-9.61,55.43c-2.56,16.88-8.31,32.13-20.46,44.48
	c-0.84,0.85-2.54,0.84-3.85,1.23"/>
<path class="st0" d="M1727.59,1383.36c5.44-21.94,10.23-44.13,2.87-66.36c-3.45-10.4-8-21.26-14.92-29.52
	c-17.82-21.28-39.52-37.52-67.67-43.31c-17.4-3.58-34.1-3.15-45.83,12c-5.63,7.27-8.65,16.77-11.92,25.6
	c-8.34,22.52-19.03,43.69-36.97,60.01c-16.8,15.3-34.89,29.07-57.72,34.51c-16.78,4-32.36,1.91-46.12-9.35
	c-22.73-18.6-36.66-42.65-41.89-71.2c-2.33-12.7-2.2-26.03-1.67-39.02c0.83-20.69-6.05-39.28-13.56-57.82
	c-2.09-5.16-5.05-9.98-7.75-14.87c-7.81-14.13-21.99-20.54-38.28-17.18c-12.01,2.48-23.88,6.32-36,7.38
	c-7.62,0.66-16.27-1.28-23.27-4.59c-12.51-5.92-24.16-13.69-36.1-20.81c-22.05-13.16-44.96-15.86-68.78-5.41
	c-17.3,7.59-34.37,15.68-51.65,23.32c-3.12,1.38-6.79,1.47-10.11,2.46c-20.57,6.14-28.08,22.71-32.83,41.4
	c-4.69,18.46-8.03,37.18-6.95,56.27c1.69,29.92,10.21,57.78,25.51,83.75c6.06,10.29,10.08,21.78,15.03,32.72"/>
<path class="st0" d="M658.28-303.45c7.03,12.25,15.06,24.04,20.88,36.84c9.92,21.78,18.53,44.16,27.55,66.35
	c6.08,14.97,14.51,28.57,25.17,40.52c12.75,14.29,26.29,27.89,39.78,41.5c16.38,16.52,25.41,35.84,24.2,59.45
	c-1.08,21.1-3.27,42.23-2.84,63.31c0.54,26.53,20.38,59.17,49.72,64.13c10.39,1.76,20.5,0.69,30.49-2.37
	c19.54-5.99,39.08-11.99,58.63-17.97c14.13-4.32,23.85-14.27,31.97-25.85c8.42-12.01,15.46-25.04,24.5-36.53
	c11.17-14.19,23.36-27.65,35.87-40.7c15.51-16.18,26.68-34.54,31.94-56.38c3.74-15.51,1.29-30.83-1.57-46.12
	c-2.61-13.97-5.94-27.77-5.58-42.21c0.49-20.26,13.02-34.6,32.93-37.61c19.22-2.91,36.44,3.25,53.1,11.18
	c14.93,7.11,29.12,15.74,43.88,23.24c19.15,9.73,39.89,13.48,60.89,10.64c17.68-2.39,29.25-13.98,34.42-32.47
	c4.97-17.77,3.08-35.48-0.75-53.15c-1.86-8.59-3.65-17.19-5.48-25.79"/>
<path class="st0" d="M537.12,1382.58c9.12-8.6,17.2-18.82,27.57-25.47c24.36-15.61,49.38-30.35,75.03-43.71
	c11.02-5.74,24.13-9.24,36.56-10.16c35.12-2.6,62.08-16.78,79.81-48.01c16.75-29.52,31.37-59.89,38.78-93.12
	c3.95-17.74,5.65-35.96,8.88-53.88c2.37-13.17,1.87-26.1-0.85-39.1c-5.55-26.57-23.45-40.95-48.54-45.81
	c-25.43-4.93-50.65-2.82-74.23,9.79c-12.24,6.54-21.69,15.75-28.87,27.44c-8.93,14.55-17.64,29.23-26.61,43.75
	c-15.71,25.43-36.57,46.25-60.32,63.91c-18.53,13.78-38.45,25.68-57.68,38.52c-10.76,7.18-21.62,14.24-32.01,21.93
	c-21.3,15.77-44.94,25.24-71.17,28.92c-32.07,4.5-47.87,24.67-49.82,53.88c-1.59,23.9-1.26,47.93-1.78,71.9"/>
<path class="st0" d="M709.87-303.45c-0.51,27.99,3.6,55.34,11.77,82.06c8.98,29.36,27.08,51.46,53.88,66.48
	c5.3,2.97,10.27,6.54,15.68,9.3c17.65,9,24.02,25.13,26.33,43.08c1.66,12.88,1.92,26.04,1.63,39.05
	c-0.41,18.25-3.21,36.52-2.69,54.71c0.95,33.14,24.13,47.72,53.63,42.84c13.18-2.18,26.25-5.53,39.07-9.34
	c23.44-6.98,39.19-23.73,53.33-42.76c11.03-14.85,23.09-28.95,35.13-43.01c5.97-6.98,13.12-12.94,19.41-19.65
	c19.26-20.55,21.22-45.15,15.55-71.07c-2.99-13.69-8.26-26.94-10.61-40.71c-5.16-30.3,4.18-58.57,40.44-67.11
	c16.34-3.85,32.67-1.94,48.41,3.17c21.78,7.08,43.32,14.91,64.91,22.58c13.7,4.87,27.2,10.11,42.22,9.44
	c13.72-0.61,22.83-9.83,23.56-23.54c0.79-14.82-3.62-28.45-7.89-42.23c-1.34-4.34-2.13-8.84-3.17-13.27"/>
<path class="st0" d="M473.03,1382.97c2.87-1.43,5.73-2.87,8.6-4.3c14.58-7.28,26.13-18.33,37.59-29.63
	c11.41-11.26,22.97-22.44,35.2-32.79c18.92-16.01,42.07-24.15,64.78-32.95c21.45-8.31,44.06-12.12,66.48-16.19
	c25.71-4.67,44.4-18.23,57.82-40.08c14.02-22.84,25.1-46.87,29.66-73.49c4.2-24.52,7.91-49.2-0.88-73.43
	c-6.51-17.95-20.52-27.38-38.97-30.51c-29.81-5.06-52.46,6.73-69.49,30.52c-10.81,15.09-20.9,30.7-31.34,46.06
	c-12.95,19.05-31.41,32.67-47.55,48.59c-26.78,26.43-60.12,43.91-89.21,67.12c-13.59,10.84-25.89,23.67-42.3,30.28
	c-11.89,4.79-24.3,8.42-36.7,11.78c-13.48,3.65-26.92,7.2-34.27,20.49c-6.89,12.46-5.55,26.09-2.18,38.97
	c3.88,14.81,11.03,28.34,22.41,39.15"/>
<path class="st0" d="M2222.38,1382.58c17.6-17.12,34.59-34.83,46.77-56.35c6.35-11.21,10.57-23.42,10.28-36.66
	c-0.48-21.63-0.23-43.31-1.85-64.86c-0.97-12.89-5.77-25.45-7.3-38.35c-1.94-16.31-2.75-32.79-3.19-49.22
	c-0.3-11.39-0.72-22.62-4.04-33.61c-3.97-13.15-12.3-23.67-20.33-34.39c-15.41-20.56-30.45-41.4-46.23-61.66
	c-11.1-14.25-25.59-22.02-44.45-22.18c-22.05-0.19-42.13,6.62-61.7,15.19c-43.31,18.99-78.01,49.27-106.93,86.02
	c-17,21.61-20.98,46.65-12.78,73.33c2.76,8.99,5,18.16,7.05,27.35c3.63,16.24,1.28,31.98-3.75,47.7
	c-7.96,24.89-15.09,50.03-22.82,74.99c-5.56,17.96-14.86,34.01-25.67,49.32c-5.45,7.72-9.99,16.09-14.94,24.17"/>
<path class="st0" d="M52.5,1382.58c-10.31-11.72-24.5-17.02-38.35-22.55c-19.77-7.89-38.62-17.43-54.55-31.52
	c-25.02-22.12-32.56-48.05-22.74-82.72c4.76-16.8,14.79-30.71,24.89-44.63c5.64-7.77,11.05-16.04,8.6-26.5
	c-0.76-3.25-1.93-6.75-3.96-9.29c-3.42-4.3-7.35-8.34-11.65-11.75c-12.94-10.28-16.54-24.65-18.76-39.93
	c-2.86-19.72-6.61-39.13-17.81-56.36c-6.46-9.95-16.08-14.35-26.72-15.29c-17.37-1.53-34.96-2.55-52.33-1.51
	c-20.02,1.2-40.26,1.82-59.51,9.62c-14.82,6.01-25.62,15.79-33.47,29.17c-10.63,18.11-20.72,36.55-31.37,54.65
	c-8.39,14.27-8.45,29.11-4.68,44.6c4.62,18.97,8.98,38.01,13.29,57.06c1.34,5.93,2.63,11.94,3.07,17.98
	c0.88,12.22,1.64,24.49,1.55,36.73c-0.13,17.52,3.75,34.18,8.58,50.85c4.03,13.88,6.91,28.1,10.29,42.17"/>
<path class="st0" d="M2145.77,1382.58c14.4-11.42,29.15-22.4,46.17-29.58c11.92-5.03,22.78-11.26,32.03-20.41
	c14.73-14.56,17.26-32.58,13.84-51.59c-3.58-19.95-10.21-39.45-12.64-59.5c-2.18-17.97-0.31-36.42-0.5-54.66
	c-0.2-19.58,5.74-39.64-3.21-58.57c-5.32-11.26-11.9-21.92-17.85-32.89c-8.02-14.79-14.99-30.31-27.41-42.16
	c-14.67-14-31.62-19.67-52.37-16.71c-36.4,5.19-64.05,24.44-87.43,51.14c-11.96,13.66-22.07,28.57-30.03,45.15
	c-8.1,16.87-8.88,33.48-3.67,50.93c2.64,8.85,5.3,17.69,7.8,26.58c4.31,15.33-0.11,29.62-5.46,43.77
	c-10.15,26.84-20.6,53.57-30.39,80.55c-6.7,18.46-15,36-25.86,52.35c-3.56,5.36-6.8,10.93-10.19,16.4"/>
<path class="st0" d="M-109.31-303.45c-4.32,12.02-11.77,22-20.33,31.26c-7.09,7.67-13.75,15.78-14.65,26.6
	c-0.4,4.85,0.6,10.17,2.29,14.78c4.31,11.72,13.09,20.23,23.4,26.46c15.4,9.29,20.26,23.18,22.09,40
	c1.24,11.38,4.49,22.79,8.48,33.57c8.35,22.57,16.29,45.22,20.77,68.88c1.4,7.39,0.98,15.11,1.76,22.64
	c0.79,7.58,1.58,15.21,3.18,22.65C-60-5.86-53.82-1.26-42.87-0.94c15.58,0.46,30.86-1.72,46.14-4.57
	c11.87-2.21,24.35-1.86,35.83-5.17c15-4.32,30.06-9.7,43.69-17.18c20.43-11.21,42.02-19.23,63.45-27.92
	c20.51-8.32,38.59-20.17,53.39-37.24c11.28-13,12.66-26.14,5.23-40.79c-10.15-20.03-22.91-38.31-39.92-53.06
	c-13.74-11.91-30.81-16.84-48.35-20.51c-29.38-6.14-55.31-18.75-75.03-42.16c-8.71-10.34-11.18-23.1-13.32-35.94
	c-1-6-2.08-11.99-3.12-17.98"/>
<path class="st0" d="M2017.58,1382.58c16.85-11.07,35.65-14.81,55.49-15.76c21.54-1.03,42.13-5.69,60.24-18.57
	c17.25-12.27,35.03-23.81,52.28-36.08c16.24-11.56,20.64-27.65,17.39-46.86c-1.87-11.06-1.74-22.45-3.38-33.57
	c-3.01-20.38-5.79-40.86-10.43-60.9c-2.28-9.88-7.22-19.76-13.18-28.04c-12.4-17.24-22.45-35.31-28.88-55.62
	c-2.53-7.99-6.73-15.82-11.69-22.6c-9.31-12.74-26.38-15.7-41.12-9.23c-34.69,15.21-55.39,42.83-63.13,79.51
	c-2.62,12.41,2.75,24.48,8.18,35.94c2.95,6.23,5.07,12.89,7.09,19.51c5.12,16.78-1.53,31.94-8.83,45.95
	c-13.92,26.7-24.69,54.56-34,83.04c-4.53,13.87-7.75,28.16-11.9,42.15c-2.2,7.42-5.14,14.61-7.74,21.91"/>
<path class="st0" d="M-539.22,876.85c5.47-5.47,10.54-11.43,16.49-16.32c14.56-11.95,25.87-26.42,34.18-43.16
	c3.42-6.89,6.26-14.34,7.78-21.85c4.23-20.99,17.88-31.1,37.69-35.17c27.5-5.65,51.4-17.5,70.54-38.88
	c10.41-11.63,22.51-21.8,34.26-32.15c17.67-15.57,38.44-25.45,60.89-32.18c11.94-3.58,23.23-8.31,32.17-17.82
	c10.93-11.64,11.82-24.93,5.94-36.72c-4.94-9.91-11.19-19.31-17.88-28.16c-17.12-22.66-34.31-45.3-52.44-67.16
	c-11.13-13.42-22.94-26.25-39.54-34.07c-11.97-5.63-24.32-7.56-36.89-8.05c-14.9-0.58-21.33-4.56-25.9-18.18
	c-3.04-9.06-7.28-17.72-10.81-26.62c-7.82-19.73-24.52-29.39-43.11-34.82c-22.77-6.65-46.27-10.78-69.48-15.93
	c-1.49-0.33-3.12-0.04-4.68-0.04"/>
<path class="st0" d="M-14.73,1382.58c-4.95-5.47-9.86-10.98-14.86-16.41c-13-14.09-26.37-27.86-38.98-42.3
	c-13.17-15.07-17.2-33.76-18.83-53.08c-2.29-27.08-5.19-53.81-16.91-79.09c-6.49-13.99-8.47-29.33-5.24-45.25
	c2.32-11.47,2.76-23.38,3.28-35.13c0.81-18.47-11.24-33.16-28.8-37.59c-16.07-4.06-32.03-4.76-48.51-2.5
	c-13.79,1.89-26.79,4.5-36.67,15.12c-4.65,5-9.83,9.86-13.16,15.69c-11.94,20.92-23.92,42.21-27.12,66.4
	c-1.75,13.25-0.07,27.12,1.33,40.57c1.93,18.57,5.29,36.99,7.58,55.52c2.81,22.75,6.77,45.2,13.24,67.25
	c4.99,17.03,8.97,34.36,13.4,51.56"/>
<path class="st0" d="M1912.84-302.67c0.78,1.04,1.99,1.98,2.28,3.14c4.11,16.38,11.86,30.89,24.42,42.05
	c14.98,13.31,24.65,29.42,29.57,48.61c8.41,32.8,28.54,56.68,56.25,75.1c18.26,12.14,34.94,26.42,49.13,43.06
	c21.85,25.61,50.4,22.98,75.12,9.89c9.68-5.13,10.59-9.95,3.88-18.54c-17.14-21.93-26.8-47.16-34.39-73.53
	c-3.57-12.42-7.24-24.98-12.61-36.67c-11.08-24.11-31.48-36.56-56.86-41.47c-12.44-2.41-25.03-4.06-37.5-6.34
	c-21.96-4.02-29.3-11.51-34.34-33.59c-0.93-4.08-1.1-8.32-1.62-12.49"/>
<path class="st0" d="M2460,768.2c-12.77,1.56-25.56,2.96-38.3,4.73c-13.58,1.89-27.12,4.02-40.65,6.23
	c-20.87,3.41-38.79,12.39-52.33,28.93c-13.74,16.78-26.92,34.02-40.81,50.67c-4.68,5.61-11.18,9.66-16.22,15.02
	c-13.06,13.89-16.47,30.34-14.51,49.22c1.35,13,2.64,25.75,6.52,38.3c4.44,14.35,12.25,26.98,23.79,35.61
	c22.77,17.02,33.24,40.1,39,66.72c3.03,14,7.52,27.69,11.61,41.45c4.16,13.99,13.43,23.71,25.69,31.38
	c19.73,12.36,40.84,20.05,64.16,20.93c10.67,0.4,21.36,0.07,32.05,0.07"/>
<path class="st0" d="M1414.14,1382.58c-16.27-26.19-30.54-53.33-37.42-83.66c-3.46-15.24-5.14-30.89-8.86-46.05
	c-5.58-22.68-17.57-35.99-45.17-36.03c-26.92-0.04-49.68-10.74-70.48-27.16c-7.26-5.73-15.84-9.9-24.14-14.16
	c-17.52-9-34.38-3.12-49.82,4.94c-15.11,7.89-29.29,17.81-43.05,27.96c-20.76,15.32-29.26,37.07-31.57,62.37
	c-2.98,32.67,10.89,59.77,25.94,86.81c4.7,8.44,8.9,17.17,13.33,25.77"/>
<path class="st0" d="M-47.56,1382.58c-9.38-12.51-18.08-25.61-28.3-37.38c-15.69-18.08-24.94-39.1-30.15-61.93
	c-4.42-19.35-11.82-37.19-24.57-52.2c-14.23-16.73-18.41-36.12-19.59-57.18c-0.65-11.53-2.83-23.08-5.39-34.38
	c-4.97-21.93-26.4-21.31-38.03-13.88c-24.74,15.8-37.32,39.44-37.33,68.57c-0.01,15.37,3.32,30.75,5.15,46.12
	c0.77,6.51,2.31,13.04,2.22,19.54c-0.41,29.46,6.35,57.72,13.35,86c3.01,12.15,5.28,24.48,7.88,36.72"/>
<path class="st0" d="M1081.94,1383.36c-7.56-11.2-14.79-22.64-22.75-33.56c-10.96-15.04-16.86-31.86-19.48-50.08
	c-2.38-16.52-5.19-33.02-11.84-48.41c-5.6-12.97-15.2-22.93-28.06-28.88c-25.12-11.61-46.3-29.34-69.6-43.74
	c-10.18-6.29-20.8-12.57-32.06-16.24c-23.36-7.62-40.31,1.09-52.97,21.62c-7.71,12.51-14.91,25.35-21.9,38.29
	c-9.36,17.33-18.68,34.7-27.3,52.4c-7.09,14.57-13.2,29.62-19.64,44.5c-4.79,11.06-11.81,20.44-20.28,28.97
	c-11.17,11.24-21.94,22.87-32.88,34.34"/>
<path class="st0" d="M-539.22-294.07c11.49,12.03,24.79,22.51,32.8,37.54c5.64,10.59,10.85,21.41,16.47,32.02
	c11.67,22.01,30.46,34.52,54.73,37.21c15.7,1.74,31.75,0.37,47.64,0.32c31.7-0.11,48.19,28.24,42.49,53.23
	c-3.63,15.9-10.7,28.63-23.72,38.25c-14.69,10.85-19.91,26.38-22.02,43.74c-1.34,10.97-4.53,21.82-11.73,30.39
	c-11.96,14.23-27.88,17.15-46,16.1c-16.91-0.98-32.9-4.66-48.38-10.67c-14.34-5.56-28.2-12.36-42.27-18.61"/>
<path class="st0" d="M2064.48-302.67c21.51,12.53,45.59,18.42,68.78,26.59c15.4,5.43,22.22,15.72,22.79,32.03
	c0.47,13.31,0.49,26.91,3.33,39.8c5.36,24.36,19.29,35.29,44.24,35.83c38.43,0.83,70.39,15.06,95.12,44.17
	c7.76,9.14,13.85,20.15,18.76,31.17c9.32,20.94,24.48,35.28,45.64,42.7c20.68,7.25,38.87,18.23,55.41,32.26
	c12.37,10.5,25.86,19.15,40.67,25.77"/>
<path class="st1" d="M56.4-303.45c3.84,12.97,8.59,25.64,16.5,36.68c12.33,17.22,28.87,28.75,49.13,35.34
	c16.94,5.51,33.88,11.64,47.6,23.48c9.74,8.41,18.21,18.26,27.52,27.18c10.25,9.82,20.15,20.18,31.4,28.74
	c13.12,9.99,28.24,13.56,45.2,10.6c22.78-3.98,45.81-6.54,68.75-9.57c17.33-2.28,27.17-12.46,31.26-28.95
	c5.32-21.42,5.28-42.95,3.46-64.91c-1.61-19.41-0.34-39.05-0.34-58.6"/>
<path class="st0" d="M-507.17,1382.97c0.52,0.13,1.27,0.55,1.53,0.35c16.16-12.39,35.13-11.86,53.97-11.65
	c21.2,0.23,41.43-5.31,61.73-10.26c8.96-2.19,18.4-3.85,26.46-8.01c17.56-9.08,24.46-26.13,27.17-44.34
	c1.74-11.73,1.79-24.15,0-35.86c-2.95-19.35-17.28-29.62-37.19-29.9c-22.98-0.32-43.98,6.22-64.98,14.76
	c-19.43,7.9-36.26,19.86-53.82,30.76c-14.87,9.23-30.27,17.12-47.7,20.29"/>
<path class="st1" d="M2460,52.2c-12.51-9.9-25.08-19.72-37.5-29.73c-11.82-9.53-23.07-19.82-35.38-28.64
	c-5.41-3.88-12.68-6.2-19.39-7.05c-18.55-2.36-26,8.69-27.23,25.56c-1.24,16.92,3.39,33.13,7.8,49.21
	c5.11,18.6,11.41,36.88,16.11,55.58c2.54,10.11,2.96,20.77,4.1,31.21c2.67,24.3,6.08,48.52,13.48,71.86
	c5.8,18.31,19.33,29.07,38.17,31.92c13.15,1.99,26.55,2.27,39.84,3.31"/>
<path class="st0" d="M952.97,1382.58c9.12-8.6,17.88-17.62,27.44-25.69c13.77-11.62,20.04-26.86,23.38-43.87
	c3.24-16.53,1.49-32.33-8.78-45.99c-5.27-7-11.89-13.18-18.68-18.78c-13.75-11.33-27.74-22.42-42.22-32.8
	c-10.71-7.69-21.77-14.68-35.83-16.01c-17.09-1.62-29.57,5.4-38.98,18.31c-13.02,17.87-25.52,36.14-37.53,54.7
	c-9.66,14.91-14.51,32.11-17.76,49.23c-4.2,22.15-12.1,42.32-24.56,60.91"/>
<path class="st0" d="M-539.22,218.7c5.99,4.43,12.81,8.09,17.81,13.44c11.22,12.01,21.35,25.01,32.26,37.33
	c16.44,18.57,36.64,31.42,61.72,32.51c20.68,0.89,38.95-9.16,40.92-33.29c0.57-7.04-3.3-15.56-7.62-21.64
	c-9.2-12.93-19.9-24.81-30.22-36.92c-14.82-17.38-21.48-37.64-22.75-60.21c-0.84-14.8-3.48-29.59-13.3-41.33
	c-14.34-17.16-32.7-20.19-55.38-11.07c-8.03,3.23-16.15,6.27-24.22,9.4"/>
<path class="st0" d="M-287.52,1383.36c-1.82-11.99-4.19-23.92-5.31-35.97c-1.02-10.87-0.75-21.87-0.92-32.82
	c-0.12-7.81-0.21-15.64,0.04-23.45c0.16-4.96,1.56-9.92,1.4-14.85c-0.91-27.55-3.17-54.83-21.81-77.37
	c-13.83-16.71-31.87-20.29-51.5-13.87c-20.12,6.58-40.28,13.63-59.34,22.73c-32.79,15.66-64.75,33.08-97.06,49.73
	c-5.7,2.94-11.46,5.74-17.19,8.61"/>
<path class="st0" d="M-329.73,1383.36c6.77-18.99,10.54-38.63,12.47-58.63c1.74-17.96,4.04-35.93,4.43-53.94
	c0.29-13.19-3.61-25.81-10.49-37.61c-8.61-14.75-31.75-21.58-47.86-18.79c-46.27,8.01-87.66,27.56-127.53,51.48
	c-12.82,7.69-26.15,15.29-41.29,18.21"/>
<path class="st0" d="M90.8-303.45c9.23,25.05,26.73,42.54,50.03,54.71c20.06,10.48,38.01,23.75,53.99,39.82
	c9.61,9.67,19.23,19.44,29.77,28.05c16.76,13.69,36.43,14.91,56.95,11.15c11.41-2.09,21.97-5.97,32.08-11.7
	c18.14-10.29,26.67-26.97,30.21-46.25c3.16-17.26,4.36-34.88,6.5-52.33c0.96-7.83,2.07-15.63,3.11-23.45"/>
<path class="st0" d="M-540,1162.16c35.24,8.08,65.57-3.72,93.76-23.5c17.12-12.01,31.19-26.82,36.63-47.67
	c3.72-14.25,4.96-28.62,3.75-43.77c-2.2-27.74-14.97-49.73-32.68-69.39c-14.95-16.61-33.36-28.68-56.15-31.16
	c-11.89-1.29-23.33,2.79-33.54,9.2c-3.91,2.45-7.34,5.66-10.99,8.53"/>
<path class="st0" d="M2261.46-302.67c-2.08,5.99-3.94,12.08-6.3,17.96c-5.63,14.05-14.45,25.98-24.94,36.79
	c-4.11,4.24-8.27,8.53-11.67,13.32c-6.28,8.87-4.51,15.07,5.4,20.21c4.55,2.36,9.75,3.62,13.97,6.41
	c11.68,7.75,23.36,15.58,34.37,24.24c11.89,9.35,23.29,19.39,34.42,29.66c12.18,11.24,23.05,23.57,31.5,38.13
	c10.52,18.14,24.34,33.24,44.38,41.55c21.74,9.01,39.26,24.22,57.18,38.92c6.09,5,13.44,8.47,20.22,12.64"/>
<path class="st0" d="M-540,607.18c13.55,3.39,26.96,7.51,40.68,9.98c17.91,3.22,27.12,0.63,34.25-10.83
	c6.24-10.02,7.12-21.39,4.72-32.74c-3.32-15.7-7.49-31.22-10.8-46.93c-5.12-24.37-2.94-48.15,6.94-71.13
	c1.76-4.09,3.47-8.24,4.66-12.51c4.42-15.89-5.48-30.95-23.42-32.49c-17.59-1.51-35.41-0.33-53.12-0.33c-1.3,0-2.61,0-3.91,0"/>
<path class="st1" d="M2460,363.3c-23.34,0.67-45.77,4.64-65.67,17.97c-22.56,15.11-32.87,37-35.16,63.32
	c-3.51,40.25,7.2,77.34,24.05,113.42c11.83,25.32,31.27,41.36,56.47,51.46c6.65,2.66,13.53,4.74,20.3,7.08"/>
<path class="st0" d="M902.94,1382.58c3.54-13.4,11.28-24.07,21.04-33.68c8.66-8.53,16.93-17.48,25.04-26.55
	c13.96-15.62,13.15-33.5,1.66-50.03c-7.09-10.2-15.39-19.05-25.86-25.74c-19.89-12.69-32.28-12.51-50.57,2.6
	c-14.16,11.7-27.04,25.21-34.7,42.68c-4.73,10.79-7.18,21.87-7.86,33.64c-1.12,19.31-3.01,38.57-4.57,57.85"/>
<path class="st0" d="M-539.22,1094.15c9.38,9.9,17.81,21.01,28.43,29.33c8.79,6.88,20.36,7.73,31.77,4.36
	c19.69-5.83,35.98-16.04,46.07-34.48c11.59-21.18,10.19-42.59-0.92-63.21c-8.26-15.32-21.06-27.01-35.88-35.89
	c-12.85-7.71-26.55-8.34-39.75-0.12c-11.43,7.11-22.06,15.19-29.72,26.55"/>
<path class="st0" d="M126.75-303.45c4.56,14.49,14.71,24.74,25.76,34.43c20.96,18.37,41.87,36.8,62.5,55.54
	c8.95,8.13,18.34,15.45,29.8,19.39c22.36,7.68,48.62-1.9,61.85-19.37c9.26-12.23,12.77-26.47,15.23-40.79
	c2.78-16.21,3.41-32.78,4.97-49.2"/>
<path class="st0" d="M2296.63-303.45c0.56,19.31-3.27,38.1-5.95,57.1c-3.29,23.33,1.71,45.14,19.27,62.45
	c7.35,7.25,15.32,13.86,22.58,21.19c12.96,13.1,25.71,26.41,38.31,39.85c7.86,8.39,17.38,13.61,28.16,17.24
	c12.11,4.07,24.91,7.24,35.71,13.67c9.4,5.59,16.43,15.17,24.51,22.99"/>
<path class="st0" d="M-77.26,1382.58c-7.82-10.68-15.32-21.61-23.52-31.99c-11.98-15.16-18.66-32.65-24.27-50.83
	c-3.24-10.5-8.37-20.01-17.02-27.47c-8.81-7.6-18.87-11.01-29.7-7.49c-12.45,4.05-16.67,15.14-18.86,27.11
	c-3.82,20.8,4.07,39.83,8.52,59.43c2.4,10.55,3.75,21.34,5.57,32.02"/>
<path class="st0" d="M401.9-303.45c0.59,20.03,6.58,38.77,14.16,57.02c3.34,8.05,7.34,15.89,11.72,23.44
	c7.03,12.13,18.08,17.57,31.96,17.23c41.26-1.01,73.84-17.48,96.27-53.05c8.85-14.04,19.12-27.2,28.84-40.69
	c0.94-1.3,2.56-2.12,3.86-3.16"/>
<path class="st0" d="M2459.22,1026.93c-15.77-6.83-32.14-11.86-49.26-13.08c-12.39-0.88-23.77,3.56-32.76,12.36
	c-13.5,13.21-19.95,29.91-21.03,48.41c-1.34,23.05,17.11,44.07,39.69,48.65c24.21,4.91,44.2-3.63,63.35-16.61"/>
<path class="st0" d="M1691.63,1383.36c4.43-9.9,9.11-19.7,13.24-29.72c13.52-32.81-10.87-65.41-41.45-72.36
	c-14.93-3.39-29.03,1.59-37.24,15.45c-7.52,12.69-13.95,26.16-19.58,39.81c-7.97,19.33-18.98,35.72-37.69,46.05"/>
<path class="st0" d="M2459.22,650.17c-14.85-5.21-29.6-10.74-44.61-15.46c-5.13-1.61-10.94-1.95-16.35-1.59
	c-13.84,0.93-20.32,9.38-23.7,22.46c-4.25,16.41-3.98,32.9-2.61,49.29c1.32,15.8,13.8,25.37,32.54,29.06
	c18.5,3.64,36.99,1.89,55.52,1.45"/>
<path class="st0" d="M2329.46-303.45c-1.82,15.89-3.94,31.76-5.37,47.69c-1.03,11.42-2.27,23.01-1.4,34.36
	c1.31,17.07,13.67,28.1,25.71,38.1c12.47,10.36,26.29,19.14,39.71,28.32c15.86,10.84,33.3,12.4,51.56,7.84
	c6.81-1.7,13.55-3.63,20.33-5.45"/>
<path class="st1" d="M-483.72-302.67c7.03,9.9,14.1,19.78,21.1,29.71c8.15,11.55,17.86,21.38,31.32,26.45
	c5.99,2.26,12.42,4.38,18.72,4.61c28.94,1.07,57.6-1.92,85.97-7.65c10.66-2.15,17.14-6.6,17.28-21.86
	c0.1-10.69,0.96-21.37,1.48-32.05"/>
<path class="st0" d="M942.8-303.45c-11.2,16.94-22.04,34.13-33.73,50.73c-9.15,13-18.64,25.9-31.92,35.27
	c-1.36,0.96-2.46,2.43-3.94,3.06c-13.14,5.55-20.32,7.87-28.7-8.64c-5-9.87-8.24-20.66-11.88-31.18
	c-6.55-18.96-18.98-32.9-36.05-42.91c-3.9-2.29-8.3-3.72-12.47-5.54"/>
<path class="st0" d="M2459.22,410.98c-14.64,2.18-26.47,8.67-35.27,21.04c-12.2,17.15-23.96,34.47-27.95,55.58
	c-2.7,14.29-0.9,28.49,3.86,42.17c7.99,22.95,21.05,42.05,42.98,53.88c5.22,2.82,10.91,4.76,16.38,7.1"/>
<path class="st0" d="M2360.73-303.45c-1.04,19.54-3.11,39.1-2.84,58.62c0.27,19.97,12.03,32.92,30.19,32.57
	c4.98-0.1,10.95-2.18,14.67-5.42c15.88-13.82,28.19-30.53,29.49-52.19c0.67-11.07-2.74-22.38-4.3-33.59"/>
<path class="st0" d="M159.58-303.45c6.28,13.46,16.33,24.09,26.68,34.29c11.02,10.87,22.64,21.17,34.38,31.27
	c5.5,4.74,11.77,8.64,17.92,12.57c20.33,12.96,42.56,3.13,50.93-17.88c4.37-10.96,6.14-22.07,6.11-33.67
	c-0.03-8.86-0.01-17.72-0.01-26.58"/>
<path class="st0" d="M1013.15-303.45c0.9,6.47,5.39,9.8,10.97,11.63c4.54,1.49,9.35,3.08,14.04,3.07
	c33.11-0.03,65.15,6.31,96.98,14.8c9.57,2.55,19.72,3.31,29.66,3.99c20.21,1.4,28.38-12.96,29.68-28.82
	c0.13-1.55,0.02-3.13,0.02-4.69"/>
<path class="st0" d="M-540,638.45c19.1,7.97,37.12,17.78,49.1,35.27c9.9,14.46,12.9,30.99,10.26,48.36
	c-1,6.56-2.23,13.12-3.93,19.53c-2.94,11.1-11.81,16.45-21.87,18.51c-10.96,2.24-22.35,2.36-33.56,3.4"/>
<path class="st0" d="M2460,1257.52c-14.48,2.41-29.01,4.47-40.69,14.81c-9.05,8.02-14.55,18.36-19.4,29.01
	c-7.41,16.24-14.89,32.53-20.94,49.29c-3.76,10.43-4.95,21.79-7.3,32.73"/>
<path class="st0" d="M-540,575.91c22.35,0.51,33.12-11.81,33.66-33.61c0.36-14.58-0.11-29.07-4.83-42.96
	c-5.4-15.92-10.15-24.18-28.83-26.61"/>
<path class="st0" d="M-455.58-302.67c3.39,4.17,6.82,8.31,10.15,12.51c8.31,10.48,17.86,19.22,31.27,22.67
	c25.32,6.52,61.98-3.47,70.42-32.82c0.27-0.93,1.5-1.58,2.28-2.36"/>
<path class="st0" d="M1332.85,1382.58c-9.31-12.58-20.68-22.75-35.19-28.87c-23.58-9.95-44.94-4.84-63.96,11.03
	c-6.45,5.39-11.58,12.37-17.31,18.62"/>
<path class="st0" d="M2459.22,1280.19c-22.13,5.72-34.12,22.15-42.9,41.47c-8.97,19.75-16.17,40.16-19.63,61.71"/>
<path class="st0" d="M2460,475.86c-14.68,4.65-27.14,12.23-31.11,28.18c-3.58,14.41-0.6,28.25,7.73,40.56
	c5.72,8.45,13.12,15.3,22.59,19.59"/>
<path class="st0" d="M440.98-303.45c5.17,13.16,13.85,23.76,25.09,31.95c18.22,13.27,34.11,5.95,41.91-12.5
	c2.49-5.9,2.31-12.93,3.35-19.45"/>
<path class="st0" d="M2460,119.42c-7.75,1.83-15.51,4-20.21,11.02c-2.49,3.72-5.05,8.16-5.37,12.44
	c-1.35,18.43,1.48,36.06,13.94,50.71c3.31,3.89,7.73,6.85,11.63,10.24"/>
<path class="st0" d="M2460,1304.42c-16.04,8.29-23.65,22.97-28.81,39.12c-4.19,13.11-7.41,26.54-11.05,39.83"/>
<path class="st0" d="M2334.15,1383.36c-1.82-7.03-2.65-14.55-5.72-20.99c-4.12-8.64-11.75-11.89-23.12-6.95
	c-13.36,5.81-24.72,14.75-32.92,27.16"/>
<path class="st0" d="M200.23-303.45c6.27,10.21,14.8,18.44,25.12,24.04c13.51,7.33,24.8,4.14,26.49-12.31
	c0.4-3.92,1.02-7.82,1.55-11.73"/>
<path class="st0" d="M-539.22-244.05c7.73,22.41,4.61,44.82,0,67.22"/>
<path class="st0" d="M1511.85-303.45c4.8,10.33,12.41,13.98,24.21,10.87c10.51-2.77,20.84-6.27,31.3-9.24
	c2.48-0.7,5.19-0.59,7.8-0.85"/>
<path class="st0" d="M2458.44,919.84c-2.87,3.65-6.12,7.06-8.53,10.99c-9.11,14.87-4.92,30.15,9.31,39.82"/>
<path class="st0" d="M1292.2,1382.97c-1.56-0.39-3.36-0.41-4.65-1.23c-11.38-7.23-22.33-7.87-32.93,1.55
	c-0.52,0.46-2.02-0.18-3.06-0.31"/>
<path class="st0" d="M2459.61,1342.72c-1.95,6.25-4.26,12.42-5.77,18.78c-1.71,7.2-2.7,14.57-4,21.86"/>
<path class="st0" d="M-539.22,684.56c0.26,1.04,0.25,2.27,0.82,3.1c7.73,11.18,7.88,22.12-0.82,32.86"/>
<path class="st0" d="M-386.8-302.67c-7.3,0-14.59,0-21.89,0"/>
<path class="st0" d="M-42.87-302.67c7.3,5.33,14.59,5.33,21.89,0"/>
<path class="st0" d="M260.42,197.59c-10.16,1.56-20.35,2.98-30.48,4.72c-17.64,3.04-35.15,6.7-51.57,14.08
	c-17.29,7.78-28.46,21.16-34.41,39.04c-3.12,9.38-6.41,18.71-9.35,28.15c-6.23,20.03-19.23,36.29-29.8,53.89
	c-6.58,10.95-10.8,22.82-12.21,35.24c-2.03,17.86,7.99,31.95,24.76,41.44c13.17,7.45,27.67,10.92,42.27,12.99
	c15.73,2.22,31.74,2.91,47.65,3.27c28.73,0.64,56.14-6.9,82.78-16.48c38.39-13.81,57.83-44.06,68.18-81.85
	c6.33-23.13,8.22-46.6,7.67-70.38c-0.28-12.25-0.61-24.53-1.65-36.73c-0.81-9.45-7.04-15.43-15.53-18.7
	c-11.27-4.34-22.96-6.91-35.15-7.15c-17.46-0.35-34.91-1-52.37-1.52"/>
<path class="st0" d="M252.6,221.04c-10.42,1.82-20.86,3.55-31.26,5.49c-30.77,5.73-51.86,22.44-58.49,53.95
	c-5.21,24.77-16.6,46.74-28.17,68.82c-4.26,8.13-7.79,16.67-5.69,26.54c1.99,9.38,7.5,15.28,15.72,19.57
	c19.11,9.96,39.12,11.06,60.24,8.85c20.69-2.16,40.7-7.06,60.97-11.08c44.48-8.81,67.76-37.87,76.28-79.96
	c5.44-26.89-0.45-52.22-20.16-72.51c-11.47-11.8-26.59-16.8-42.86-18.08c-8.59-0.68-17.19-1.07-25.79-1.59"/>
<path class="st0" d="M-246.1,231.98c-16.4,2.96-29.02,12.31-39.81,24.28c-15.33,17-30.31,34.31-45.38,51.55
	c-9.99,11.43-15.26,25.23-16.81,39.9c-0.74,7.05,2.01,14.8,4.45,21.79c4.23,12.13,11.86,22.49,21.06,31.2
	c19.63,18.58,34.34,40.92,49.97,62.62c10.66,14.8,21.25,29.7,32.93,43.69c13.54,16.23,32.07,26.02,50.69,35.23
	c12.12,5.99,22.49,14.27,28.66,25.99c12.82,24.35,30.11,44,52.29,60.48c13.12,9.75,24.58,22.56,34.38,35.78
	c15.08,20.35,33.11,37.25,52.63,52.99c10.06,8.11,16.32,18.14,16.72,31.97c0.4,13.58,1.92,27.3,4.66,40.61
	c3.94,19.16,15.82,32.21,38.08,32.83c10.41,0.29,20.88,0.59,31.26-0.08c13.5-0.88,22.28-13.18,19.53-26.44
	c-3.38-16.3-10.96-30.52-21.89-42.98c-5.35-6.1-11.41-11.64-16.29-18.07c-9.61-12.67-11.27-22.33-1.32-38
	c14.2-22.35,25.27-46.41,39.25-68.69c7.83-12.47,20.04-22.69,31.73-32.13c16.05-12.96,29.88-27.35,37.98-46.42
	c4.63-10.9,6.18-22.84,3.02-34.27c-3.51-12.71-13.28-20.58-24.74-26.72c-21.58-11.57-44.78-18.85-68.09-25.56
	c-33.27-9.58-64.32-22.6-90.01-46.89c-11.81-11.17-25.35-20.52-38.14-30.65c-17.6-13.93-28.19-32.58-35.96-53.16
	c-3.06-8.1-6.24-16.16-9.37-24.24c-7.22-18.62-22.05-30.23-38.41-39.67c-16.43-9.48-33.64-17.64-50.73-25.92
	c-16.21-7.85-33.26-12.53-51.55-11.02"/>
<path class="st0" d="M765.37,508.69c-8.11,2-14.85,6.31-20.3,12.53c-12.06,13.74-25.18,26.76-35.67,41.63
	c-12.18,17.27-13.11,36.75-3.41,56.04c5.03,9.99,10.11,19.98,15.69,29.67c4.94,8.58,6.01,17.91,6.98,27.4
	c1.46,14.34,3.15,28.66,4.65,43c1.12,10.67,2.06,21.37,3.15,32.05c3.66,35.82,26.86,54.25,58.6,61.05
	c24.86,5.33,46.7,0.35,67.4-14.71c21.82-15.87,45.26-29.5,63.98-49.43c14.19-15.11,24.85-32.21,29.52-52.44
	c3.45-14.92,0.12-29.09-10.14-40.51c-18.54-20.65-42.67-31.32-69.45-36.89c-18.9-3.93-38.01-2.64-57.07-3.25
	c-6.55-0.21-13.46-1.43-19.45-3.96c-10.71-4.52-13.71-11.88-11.02-23.22c3.04-12.79,6.67-25.45,9.26-38.33
	c3.73-18.55-9.25-41.22-31.95-40.63"/>
<path class="st0" d="M1604.87,552.46c-7.3,1.04-14.58,2.18-21.89,3.11c-23.23,2.94-46.45,5.77-67.25,17.95
	c-9.46,5.54-16.62,12.27-16.42,24.28c0.12,7.3,3,12.59,9.37,16.5c10.32,6.33,20.97,5.78,32.11,3.09
	c31.93-7.72,59.12-23.41,81.29-47.72c0.5-0.54,1.31-0.96,1.52-1.58c1.39-4.14,2.65-8.32,3.95-12.49c-3.91-1.04-7.77-2.42-11.74-3.02
	c-3.31-0.5-6.76-0.1-10.15-0.1"/>
<path class="st0" d="M1254.68,574.35c-13.79,3.96-24.88,12.46-35.99,21.06c-19.41,15.02-39.3,29.44-58.45,44.77
	c-6.83,5.47-13.02,12.25-17.95,19.48c-18.49,27.12-1.46,73.35,26.24,84.73c17.4,7.15,34.73,12.71,53.33,14.39
	c13.79,1.25,27.7,3.62,41.4,2.81c19.46-1.15,39.22-0.84,57.95-8.83c19.55-8.34,29.44-23.02,32.75-43.18
	c4.93-30.11-3.13-58.41-13.63-85.85c-6.41-16.78-20.67-27.7-36.42-36.05c-5.86-3.11-11.93-5.84-17.96-8.62
	c-9.7-4.47-19.96-5.44-30.48-4.71"/>
<path class="st0" d="M1901.9,579.04c-9.9,2.08-19.86,3.94-29.69,6.3c-24.92,5.98-44.48,20.07-59.36,40.65
	c-8.68,12-16.57,24.57-25.12,36.66c-12.56,17.77-28.8,31.55-47.67,42.19c-12.54,7.08-22.93,16.06-26.39,30.57
	c-1.93,8.13-2.58,16.61-3.23,24.98c-2.49,32.28-29.12,55.71-57.9,54.7c-13.29-0.47-26.63-2.05-39.85-1.34
	c-28.46,1.51-54.06,10.84-70.9,35.13c-13.59,19.6-17.29,39.86,0.75,59.05c6.53,6.94,14.99,12.42,23.33,17.24
	c19.79,11.42,40.36,21.49,59.99,33.17c13.37,7.96,26.91,11.02,41.5,5.95c22.81-7.92,45.47-16.33,67.98-25.06
	c6.12-2.37,11.93-6.09,17.18-10.1c18.72-14.27,39.14-25.73,59.35-37.63c10.35-6.1,20.3-13.47,28.85-21.87
	c16.76-16.46,37.47-22.59,59.58-26.48c11.82-2.08,24.2-3.42,35.03-8.09c20.63-8.88,33.21-24.82,36.3-48.07
	c2.77-20.84-1.27-40.81-4.82-61c-4-22.76-3.63-45.8-3.05-68.77c0.34-13.83,2.69-27.61,2.83-41.43c0.2-20.28-11.72-32-29.57-34.93
	c-11.25-1.84-22.89-1.29-34.35-1.81"/>
<path class="st0" d="M340.15,593.11c-8.34,2.34-17.13,3.69-24.91,7.26c-12.9,5.91-17.99,17.68-14.89,31.81
	c2.53,11.54,4.78,23.26,8.71,34.34c9.06,25.56,14.97,51.87,20.97,78.22c5.32,23.38,16.4,43.25,36.7,57.07
	c21.09,14.36,41.78,29.35,63.42,42.82c27.41,17.06,34.08,35.79,23.66,66.46c-6.66,19.6-17.35,37.9-27.03,56.36
	c-7.77,14.81-17.17,28.89-20.82,45.44c-2.14,9.72-3.53,19.74-3.91,29.67c-1.03,27.11-4.18,53.89-9.24,80.56
	c-1.57,8.25-0.49,17.24,0.65,25.72c2.54,18.95,19.66,26.54,35.82,27.09c8.8,0.3,17.93-1.49,26.52-3.79
	c20.66-5.53,40.07-14.5,58.58-25c24.29-13.78,41.33-34.7,55.76-58.37c14.29-23.45,22.18-49.16,29.42-75.18
	c5.9-21.22,21.2-32.1,40.81-37.28c25.25-6.67,49.76-15.1,73.39-26.08c11.41-5.3,22.61-11.09,33.61-17.18
	c23.59-13.06,21.21-36.45,6.26-53.06c-13.4-14.89-29.43-26.62-46.08-37.56c-19.8-13-37.19-28.57-52.62-46.68
	c-7.46-8.75-16.71-16.63-26.59-22.44c-7.3-4.29-16.87-5.86-25.56-6.38c-11.91-0.71-23.97,0.47-35.93,1.31
	c-27.61,1.93-50.12-8.66-69.6-27.38c-18.98-18.24-32.27-39.53-37.58-65.67c-5.53-27.23-23.77-45.22-46.14-59.26
	c-15.99-10.04-33.31-17.63-52.27-20.45c-6.74-1-13.54-1.6-20.32-2.38"/>
<path class="st0" d="M1887.83,604.05c-9.64,2.61-19.64,4.32-28.85,8c-18.83,7.54-31.54,22.48-42.17,38.97
	c-13.75,21.33-26.73,43.16-39.97,64.81c-11.1,18.16-17.43,38.17-22.7,58.61c-5.77,22.43-15.17,43.09-32.13,59.31
	c-13.86,13.26-27.92,26.47-43.08,38.16c-15.01,11.57-21.06,8.99-33.39,0.96c-10.99-7.16-22.04-13.9-35.2-16.41
	c-9.66-1.84-18.87-0.93-27.34,4.01c-18.43,10.76-13.09,28.8,0.7,36.77c18.44,10.66,37.82,11,57,4.29
	c13.13-4.59,23.56-3.01,35.46,3.92c22.44,13.06,38.61,10.64,62.17-8.52c14.3-11.63,29.43-21.5,45.47-30.35
	c11.97-6.6,24.08-13.18,35.1-21.19c20.14-14.65,42.7-22.93,66.54-28.86c13.55-3.37,27.06-7.43,38.31-16.33
	c14.82-11.73,22.14-27.25,22.71-46.09c0.69-22.57-2.27-44.87-4.59-67.24c-0.75-7.22,0.53-14.65-0.27-21.86
	c-1.27-11.53-2.67-23.16-5.53-34.36c-3.88-15.21-16.04-21.86-30.31-24.95c-5.58-1.21-11.44-1.15-17.17-1.68"/>
<path class="st0" d="M1256.25,605.62c-25.93,6.28-44.66,24.38-64.73,40.05c-7.91,6.18-15.13,13.74-21.07,21.83
	c-14.9,20.3-6.56,45.82,13.12,57.7c15.13,9.13,31.77,12.95,49.24,13.24c17.26,0.29,34.55,0.67,51.59-3.06
	c22.14-4.85,41.06-14.23,46.61-38.38c2.81-12.21,1.81-24.98-1.2-37.47c-6.5-26.97-22.24-45.18-49.38-52.14
	c-7.46-1.91-15.58-1.25-23.4-1.77"/>
<path class="st0" d="M2264.59,619.69c-19.54,5.73-38.9,12.22-58.69,16.92c-12.68,3.02-25.95,3.99-39.03,4.79
	c-12.72,0.78-25.52,0.24-38.29,0.15c-30.11-0.2-51.55,13.59-65.74,39.84c-6.29,11.65-10.98,23.27-6.99,36.79
	c2.96,10.03,8.44,18.59,16.53,24.89c14.26,11.1,28.82,21.89,43.78,32.03c10.15,6.87,22.52,7.94,34.31,8.52
	c20.78,1.01,41.61,0.52,61.74-6.03c21.4-6.95,41.96-15.5,58.61-31.29c13.11-12.42,26.41-24.67,39.01-37.59
	c13.13-13.48,18.49-29.69,13.33-48.36c-4.17-15.1-15.57-24.22-28.13-32c-9.01-5.58-18.97-8.54-29.67-8.66"/>
<path class="st0" d="M1878.45,630.63c-26.36,4.98-41.21,23.41-53.17,45.33c-12.2,22.37-20.96,45.91-25.01,71.14
	c-2.12,13.22-4.6,26.36-2.4,39.88c1.67,10.25,12.37,18.81,22.72,17.14c20.87-3.38,41.51-7.61,61-16.32
	c22.14-9.9,34.74-26.74,36.59-50.86c1.23-16.1,1.87-32.32,1.45-48.45c-0.28-10.72-2.29-21.5-4.59-32.02
	c-3.4-15.57-14.91-26.59-35.82-25.83"/>
<path class="st0" d="M1263.28,634.54c-25.43,2.68-44.05,17.37-59.14,36.17c-13.47,16.78-6.31,32.15,11.51,38.74
	c22.86,8.45,45.49,3.72,67.07-4.83c15.11-5.98,24.07-23.05,21.08-37.22c-3.82-18.11-15.05-30.35-34.26-32.09
	c-1.83-0.17-3.65-0.51-5.47-0.77"/>
<path class="st0" d="M360.47,640.01c-18.84,5.77-21.85,21-20.75,40.63c0.82,14.69,3.94,29.44,7.65,43.75
	c9.13,35.21,27.27,51,63.93,59.37c4.82,1.1,9.9,0.98,14.83,1.67c13.53,1.88,20.65-8.93,17.71-21.85
	c-5.56-24.45-11.91-48.79-19.52-72.68c-6.67-20.93-19.07-38.34-40.48-46.75c-6.99-2.75-15.02-2.83-22.58-4.14"/>
<path class="st0" d="M860.73,640.01c-8.6,1.56-17.34,2.59-25.76,4.8c-16.61,4.37-32.65,10.27-45.35,22.57
	c-12.6,12.2-19.1,27.84-21.55,44.59c-1.8,12.24-1.76,25.16-0.03,37.42c2.79,19.84,16.95,26.62,35.64,28.09
	c22.16,1.73,42.47-5.77,62.52-13.97c18.63-7.62,35.85-17.38,49.24-32.84c10.1-11.66,16.78-24.62,16.52-40.64
	c-0.2-11.99-5.18-22.01-13.56-29.5c-12.65-11.3-27.6-18.55-45.15-19.02c-3.92-0.11-7.82-0.98-11.73-1.5"/>
<path class="st0" d="M2139.52,665.02c-7.03,1.82-14.55,2.65-20.97,5.75c-6.59,3.18-12.58,8.08-18,13.13
	c-8.06,7.51-7.44,22.92-0.18,31.21c11.28,12.89,26.56,18.1,42.32,19.88c21.06,2.39,41.82-0.26,60.2-12.83
	c8.64-5.91,15.48-13,17.04-23.54c2.71-18.34-10.91-27.3-24.91-30.47c-18.07-4.1-36.42-3.06-54.72-3.12"/>
<path class="st0" d="M856.04,668.15c-14.62,3.71-29.23,7.98-38.9,20.47c-5.22,6.74-10.11,14.53-12.36,22.62
	c-4.42,15.94,3.13,29.31,22.34,30.02c23.32,0.86,44.82-7.12,63.19-21.65c12.54-9.92,15.35-25.73,7.92-36.6
	c-6.76-9.89-16.72-13.86-28.14-14.8c-4.4-0.36-8.85-0.06-13.28-0.06"/>
<path class="st0" d="M1867.5,679.09c-16.64,9.15-22.56,24.66-24.02,42.23c-0.53,6.41,0.11,13.49,2.41,19.42
	c3.88,9.98,12.93,11.58,20.82,4.79c9.78-8.42,14.96-19.22,15.58-32.04c0.35-7.28,0.71-14.66-0.1-21.87
	c-1.06-9.5-4.9-12.43-13.91-12.52"/>
<path class="st0" d="M1051.45,733.81c-17.68,6.67-31.74,18.93-46.03,30.59c-23.84,19.45-43.41,42.61-58.83,69.39
	c-10.16,17.64-15.75,36.72-19.2,56.39c-2.66,15.18-4.06,30.68-4.7,46.09c-0.6,14.48,8.4,27.18,20.15,28.65
	c8.69,1.09,17.79,0.53,26.52-0.69c16.24-2.27,32.25-7.1,48.51-7.99c15.68-0.85,30.55,4.48,43,15.15
	c17.56,15.05,27.65,34.93,36.7,55.54c8.76,19.96,18.2,39.54,38.36,50.72c12.07,6.69,25.27,9.1,39.03,7.09
	c15.13-2.21,30.21-4.76,45.34-6.98c26.75-3.92,49.51-16.41,70.27-32.95c5.44-4.33,10.45-9.42,14.83-14.84
	c9.75-12.07,11.13-25.93,7.13-40.57c-4.41-16.16-8.89-32.3-13.28-48.47c-6.81-25.12-4.93-49.58,5.37-73.52
	c2.23-5.18,4.07-10.82,4.6-16.39c0.96-9.95-4.62-17.04-13.18-20.93c-10.11-4.59-20.54-8.86-31.24-11.7
	c-23.55-6.26-47.53-10.23-71.83-12.97c-26.88-3.03-53.17-9.23-76.66-23.91c-13.64-8.52-23.98-20.32-33.55-32.9
	c-7.74-10.18-16.92-16.94-30.53-14.82"/>
<path class="st1" d="M618.42-257.33c-15.42,4.75-27.62,13.71-37.62,26.5c-22.03,28.16-52.8,41.13-86.64,48.62
	c-19.37,4.29-38.87,8.37-57.76,14.31c-14.04,4.42-27.54,11.02-40.65,17.84c-14.43,7.51-18.27,21.59-18.77,36.57
	c-0.72,21.79,7.24,40.51,20.05,57.98c11.56,15.77,21.18,32.95,32.38,49.01c6.22,8.91,12.81,18.17,21.17,24.85
	c24.79,19.84,41.86,45.05,56.26,72.86c11.58,22.37,25.24,43.65,37.19,65.83c8.18,15.18,12.58,31.71,12.65,49.17
	c0.1,24.81-12.5,35.94-28.89,42.29c-14.4,5.58-29.37,7.95-44.59,8.39c-18.48,0.54-37,0.26-55.49,0.1
	c-22.99-0.2-32.02,12.07-36.51,28.24c-4.19,15.08-6.41,30.7-9.62,46.05c-6.11,29.21-15.26,57.31-36.15,79.53
	c-9.43,10.03-21.24,17.81-31.81,26.81c-8.99,7.66-18.83,14.69-26.32,23.65c-8.79,10.53-8.26,18.17-0.21,29.41
	c13.15,18.35,29.71,33.1,49.16,44.63c18.74,11.12,39.26,17.26,60.16,22.79c25.43,6.72,50.4,15.17,75.91,21.54
	c23.73,5.93,48.09,9.32,71.8,15.3c21.1,5.32,42.68,11.32,56.92,29.62c7.41,9.52,13.39,20.35,18.81,31.18
	c9.53,19.02,20.92,36.36,35.88,51.74c10.81,11.11,20.45,23.67,28.82,36.73c5.64,8.79,8.28,19.54,12.03,29.5
	c9.59,25.5,27.6,43.93,49.26,59.41c15.18,10.85,30.89,21.08,45.17,33.02c15.56,13.01,22.73,31.49,28.39,50.57
	c5.11,17.23,8.65,35,17.84,50.87c6.48,11.19,13.21,13.34,23.49,6.18c16.7-11.63,25.98-28.76,33.57-46.89
	c7.94-18.98,11.99-38.92,14.23-59.37c3.27-29.94,15.38-55.9,35.78-78.25c19.16-21,37.75-42.52,56.31-64.07
	c10.99-12.76,21.18-26.21,32.18-38.97c7.89-9.15,17.65-16,29.64-18.77c14.03-3.25,24.52,1.32,29.54,10.97
	c6.61,12.71,12.62,25.78,18.01,39.05c7.62,18.76,17.87,35.7,36.25,44.95c12.38,6.23,26.12,10.68,39.76,13.29
	c20.59,3.93,41.56,6.34,62.48,7.96c24.69,1.91,49.48,2.75,74.24,3.1c9.62,0.13,19.31-2.15,28.91-3.73
	c13.79-2.26,24.41-16.16,26.01-29.63c2.6-21.81,1.61-43.38-1.84-64.89c-3.85-24.02-7.76-48.06-12.59-71.89
	c-4.32-21.33-17.23-37.02-34.94-49.39c-12.93-9.04-24.89-19.44-37.65-28.73c-17.62-12.83-29.78-13.42-49.72,1.83
	c-16.62,12.7-31.22,28.1-46.31,42.72c-15.45,14.98-33.29,25.22-53.95,31.36c-19.82,5.9-36.37,0.83-51.68-11.84
	c-8.14-6.73-16.96-11.72-28.08-12.8c-8.99-0.87-17.04,0.22-25.07,4.09c-7.67,3.7-15.35,7.73-23.47,10.03
	c-13.93,3.95-27.79,1.9-41.39-2.87c-18.88-6.63-35.63-16.33-50.16-30.39c-11.17-10.81-15.32-24.11-15.22-38.45
	c0.16-22.48-8.97-39.01-27.62-50.81c-15.3-9.68-30.63-19.3-42.99-32.83c-8.8-9.64-15.96-19.73-17.5-33.58
	c-1.15-10.38,1.36-19.21,8.34-25.6c10.65-9.75,22.53-18.21,34.22-26.75c20.96-15.31,42.54-29.8,63.15-45.55
	c16.02-12.24,26.13-29.23,28.67-49.14c1.87-14.61,1.46-29.76,0.02-44.47c-1.14-11.62-8.14-14.61-19.99-11.81
	c-7.75,1.83-15.66,4.61-23.43,4.4c-10.93-0.29-21.4-4.74-27.92-13.89c-5.77-8.09-9.99-17.38-14.17-26.47
	c-3.23-7.01-5.81-14.4-7.85-21.85c-5.54-20.29-16.8-36.05-34.38-47.82c-8.71-5.83-16.69-12.95-24.24-20.26
	c-10.88-10.54-16.47-24.47-21.91-38.23c-8.22-20.78-13.99-42.13-11.79-64.85c0.98-10.17,2.19-20.31,3.09-30.49
	c1.56-17.7-3.78-33.61-14.15-47.6c-12.59-17-25.18-34.11-39.17-49.93c-17.76-20.08-30.2-42.92-40.59-67.34
	c-7.09-16.66-15.35-32.54-33.35-40.97c-7.63-3.57-15.04-3.48-22.79-3.65"/>
<path class="st1" d="M1040.51,793.21c-25.06,5.74-42.68,21.76-57.91,41.38c-10.35,13.34-19.75,27.11-25.77,43.03
	c-4.02,10.64-5.98,21.68-4.47,32.82c1.73,12.73,9.82,21.35,25.61,21.77c9.36,0.25,18.93,0.05,28.1-1.61
	c22.65-4.11,42.74,1.77,61.79,13.46c22.69,13.93,38.41,34.02,50.79,57.08c6.29,11.71,11.33,24.31,19.04,34.97
	c11.85,16.38,28.4,21.82,49.02,18.48c26.94-4.37,50.29-15.72,71.83-31.61c17.33-12.78,21.37-30.54,18-50.77
	c-6.05-36.27-24.77-65.74-49.18-92.29c-11.16-12.14-24.9-19.28-40.72-22.52c-11.2-2.3-21.05-7.09-30.51-13.32
	c-21.67-14.26-43.28-28.56-67.09-39.35c-15.37-6.97-30.55-13.03-47.78-11.52"/>
<path class="st0" d="M1837.8-287.04c-11.19,4.07-15.75,15.01-23.38,22.74c-17.72,17.96-38.33,29.58-64.13,26.97
	c-12.95-1.31-25.7-5.48-38.31-9.15c-30.97-9.02-61.38-8.28-90.62,5.72c-17.05,8.17-31.16,20-33.54,40.5
	c-1.11,9.54-0.96,19.27-0.84,28.9c0.11,8.86,0.87,17.72,1.5,26.58c0.96,13.55,1.7,27.14,3.19,40.64
	c2.18,19.76,13.54,32.14,31.91,39.23c11.85,4.57,23.82,9.07,33.74,17.75c12.57,10.99,21.02,24.7,29.02,39.08
	c6.99,12.56,13.74,25.35,24.74,35.38c15.63,14.26,33.09,18.89,54.08,15.84c20.25-2.94,39.91-7.65,59.35-13.63
	c17.54-5.4,32.55-15.2,46.12-27.33c28.41-25.39,58.48-48.45,92.19-66.53c5.57-2.98,11.22-6.49,15.53-11
	c8.58-8.99,10.92-19.13,2.34-33.36c-6.74-11.18-15.25-21.27-22.44-32.19c-12.23-18.6-23.86-37.59-36.13-56.16
	c-3.74-5.66-8.3-10.97-13.26-15.62c-18.77-17.61-33.75-38.32-49.2-58.68c-3.12-4.11-6.29-8.41-10.27-11.56
	c-2.88-2.28-7.15-2.8-10.79-4.1"/>
<path class="st0" d="M593.4,811.97c-14.59,4.17-29.4,7.71-43.71,12.68c-14.5,5.03-28.11,11.84-39.28,23.14
	c-8.46,8.56-12.88,18.93-16.16,29.88c-6.62,22.07-13.86,43.84-25.14,64.06c-11.93,21.4-24.37,42.52-35.81,64.17
	c-8.56,16.21-12.59,33.82-12.72,52.3c-0.07,9.64-1.61,19.3-1.32,28.92c0.37,12.27,0.93,24.69,3.22,36.69
	c2.78,14.63,11.45,23.05,28.66,22.54c43.04-1.29,76.24-19.92,96.82-58.5c7.56-14.18,13.95-29.11,15.59-45.29
	c1.47-14.52,1.93-29.16,2.44-43.76c0.94-26.87,13.2-38.89,38.4-44.34c19.31-4.18,39.22-5.63,58.53-9.81
	c21.17-4.59,40.31-14.65,57.79-27.27c14.28-10.31,15.29-23.65,2.19-37.93c-7.17-7.82-16.46-14.07-25.64-19.61
	c-22.37-13.52-45.4-25.94-67.84-39.36c-11.05-6.6-22.8-8.55-35.24-8.48"/>
<path class="st0" d="M1056.14,832.3c-10.15,2.07-20.17,3.91-28.24,11.62c-8.52,8.13-15.23,16.94-16.28,29.03
	c-0.68,7.87,2.62,13.59,10.14,16.39c24.73,9.18,49.23,19.11,74.37,27.01c11.84,3.72,18.88-3.7,18.92-15.26
	c0.06-20.07-4.51-37.95-19.07-52.34c-10.76-10.63-24.35-14.96-39.05-16.45"/>
<path class="st0" d="M591.84,857.31c-14.17,2.91-26.11,9.77-35.96,20.32c-0.5,0.54-1.07,1.02-1.56,1.57
	c-5.19,5.79-9.36,13.02-6.64,20.17c3.04,8.01,11.18,10.93,19.92,11.14c15.38,0.37,30.79,1.94,46.11,1.23
	c12.77-0.59,25.91-1.04,37.6-8.2c9.31-5.71,10.67-9.46,2.98-16.42c-14.53-13.16-30.76-23.77-49.97-28.91
	c-3.71-0.99-7.79-0.63-11.7-0.89"/>
<path class="st0" d="M2072.3,858.87c-13.15,6-19.44,16.95-22.79,30.45c-1.86,7.5-1.53,14.31,3.31,20.31
	c6.54,8.1,15.02,7.55,23.18,1.34c12.4-9.45,15.22-23,11.18-38.04c-3.27-12.17-4.44-13.49-14.1-14.06"/>
<path class="st1" d="M188.5,863.56c-6.51,1.56-13.05,3.06-19.54,4.7c-22.84,5.8-30.11,14.76-33,37.49
	c-2.13,16.74-3.12,33.8-11.45,49.32c-11.85,22.07-31.03,31.32-54.82,33.61c-7.07,0.68-14.06,2.14-21.11,3.04
	c-9.46,1.21-15.37,6.48-17.09,15.68c-1.56,8.37,3.3,16.08,12.41,21.06c5.93,3.24,12.14,5.99,17.93,9.46
	c16.51,9.88,25.26,24.84,27.32,43.73c0.93,8.55,2.43,17.36,1.33,25.75c-1.78,13.55-8.39,24.89-20.78,32.13
	c-5.36,3.13-10.38,6.84-15.67,10.1c-12.7,7.8-21.75,18.65-28.18,32.04c-10.24,21.3-25.64,38.34-44.49,52.41
	c-8.57,6.39-14.46,14.85-19.69,24.14c-7.35,13.04-3.99,37.11,6.88,47.3c13.47,12.64,29.01,18.6,46.43,18.89
	c16.27,0.27,32.43-3.28,46.81-11.53c8.8-5.05,14.53-13.36,18.84-22.53c9.55-20.29,21.61-38.54,39.74-52.52
	c9.01-6.95,17.42-14.92,25-23.42c15.8-17.72,36.34-24.86,58.74-28.87c17-3.05,34.25-5.47,50.74-10.35
	c34.67-10.26,52.39-36.65,59.05-70.18c3.89-19.58-1.45-38.06-16.62-53.2c-21.9-21.87-42.91-44.64-64.19-67.13
	c-2.92-3.09-5.18-6.79-7.87-10.11c-9.15-11.3-9.75-23.29-3.13-35.98c3.23-6.2,6.61-12.35,9.33-18.78
	c5.87-13.87,9.16-27.88,0.89-42.2c-5.28-9.15-13.44-13.29-23.5-13.96c-6.48-0.44-13.02-0.08-19.54-0.08"/>
<path class="st0" d="M1376.62-268.28c-16.99,4.19-24.33,17.63-30.45,32.06c-7.71,18.17-14.67,36.68-22.82,54.65
	c-12.46,27.48-31.66,50.48-50.69,73.53c-3.42,4.14-7.16,8.09-10.08,12.56c-4.52,6.92-3.06,12.88,3.83,17.91
	c12.41,9.08,26.76,13.91,41.47,16.95c11.2,2.32,22.9,3.39,34.34,3.18c30.89-0.56,61.08,2.91,90.73,11.75
	c5.89,1.75,12.72,2.6,18.65,1.46c13.72-2.63,20.9-12.1,21.03-27.08c0.11-13.02-1.42-26.06-1.29-39.08
	c0.14-13.29,1.13-26.6,2.27-39.86c1.82-21.14,1.51-42.17-4.99-62.46c-2.94-9.19-9.86-16.3-18.53-21.18
	c-17.19-9.66-34.51-19.07-51.52-29.03c-6.7-3.92-13.5-5.98-21.17-5.37"/>
<path class="st0" d="M55.62,880.76c-16.21,4.7-20.17,17.77-17.91,33.6c1.71,11.96,14.96,22.68,27.29,22.68
	c11.77,0,23.27-11.56,24.32-23.44c1.7-19.17-13.7-35.11-32.92-32.84"/>
<path class="st0" d="M2350.57,894.83c-10.82,3.59-21.13,7.86-30.61,14.68c-17.51,12.58-19.83,34.26-1.36,46.96
	c11.15,7.67,23.07,13.67,37.44,13.59c10.99-0.07,18.45-4.05,22.69-14.24c6.27-15.05,9.53-30.08,3.23-46.18
	c-4.37-11.17-12.07-15.65-23.58-14.83c-2.33,0.17-4.69,0.02-7.03,0.02"/>
<path class="st0" d="M-217.96,899.52c-6.77,3.13-14.23,5.3-20.18,9.58c-11.93,8.58-14.69,22.41-16.3,35.79
	c-1.29,10.79-1.45,22.02,0.05,32.75c1.7,12.16,8.42,17.75,20.02,18.66c9.32,0.73,18.83,0.94,28.11-0.05
	c12.07-1.28,24.18-3.23,35.93-6.25c13.71-3.53,26.2-9.69,32.08-24.04c6.88-16.78-0.2-35.05-15.55-46.98
	c-18.78-14.6-39.7-21.3-63.38-19.45"/>
<path class="st0" d="M-236.72-254.21c-8.86,1.82-17.76,3.46-26.56,5.55c-4.79,1.14-9.53,2.75-14.06,4.68
	c-8.7,3.69-13.6,13.32-11.7,23.38c4.84,25.59,5.95,51.41,6.48,77.39c0.29,14.31,0.46,29.44,8.55,42.07
	c5.01,7.83,11.3,15.54,18.7,21.02c28.23,20.9,57,41.09,85.89,61.08c9.64,6.67,20.4,10.94,32.75,10.39
	c15.6-0.7,26.55-8.03,34.44-21.18c13.02-21.7,9.79-44,1.26-65.59c-9.73-24.6-24.85-46.12-43.53-64.97
	c-17.69-17.86-36.46-34.76-50.01-56.29c-5.24-8.32-10.14-16.87-15.71-24.96c-6.1-8.85-15.53-11.67-25.72-12.56"/>
<path class="st0" d="M1192.15,944.85c-5.73,1.82-11.5,3.55-17.19,5.49c-9.78,3.33-17.65,10.72-16.47,24.21
	c0.97,11.13,4.48,21.17,11.8,29.68c6.08,7.07,14.63,7.5,22.6,6.05c13.26-2.41,25.22-8.38,33.54-19.4
	c6.76-8.94,8.59-19.01,3.25-29.63c-5.68-11.28-14.49-17.17-27.37-16.43c-3.12,0.18-6.25,0.03-9.38,0.03"/>
<path class="st0" d="M1668.96-226.07c-6.51,2.08-13.28,3.59-19.49,6.36c-19.79,8.81-26.51,26.13-28.04,46.02
	c-0.82,10.62-0.56,21.37-0.05,32.03c0.89,18.8,8.01,34.42,24.09,45.41c10.15,6.93,20.17,14.13,29.67,21.92
	c11.62,9.52,18.29,22.8,25.1,35.86c8.57,16.43,16.19,33.44,30.46,46.14c13.54,12.05,28.8,15.71,46.97,13.67
	c16.18-1.82,31.47-5.55,46.02-12.25c17.16-7.9,30.27-21.12,41.33-35.95c16.76-22.47,37.2-40.98,58.74-58.56
	c15.48-12.63,18.61-25.91,10.95-44.49c-7.76-18.83-15.93-37.65-30.57-52.27c-17.24-17.2-35.88-33.63-60.93-37.05
	c-10.46-1.43-22.11,2.61-32.68,5.89c-17.68,5.48-35.26,9.83-54.01,9.33c-13.16-0.35-24.81-5.03-36.76-9.47
	c-11.58-4.29-23.32-8.25-35.19-11.63c-4.65-1.33-9.85-0.7-14.8-0.96"/>
<path class="st0" d="M2133.27,443.03c-6.77,1.82-13.76,3.1-20.29,5.57c-23.95,9.07-42.89,25.41-61.05,42.84
	c-4.29,4.12-5.67,14.23-1.5,19.57c18.24,23.34,41.37,38.38,71.09,43.13c22.57,3.61,41.89-2.18,59.5-16.45
	c24.61-19.94,27.93-50.72,3.78-72.72c-14.3-13.02-30.99-21.2-50.75-21.95"/>
<path class="st0" d="M2130.14,413.33c-23.19,3.06-42.13,16.9-63.36,24.88c-13.02,4.89-26.3,9.55-39.86,12.42
	c-27.94,5.91-45.78,22.34-55.48,48.68c-8.57,23.24-23.63,39.37-48.37,46.34c-20.35,5.74-40.33,12.94-60.21,20.21
	c-29.11,10.64-51.97,29.27-68.91,55.35c-6.49,9.99-13.68,19.58-21.08,28.93c-14.76,18.63-35.95,25.97-57.77,32.13
	c-14.94,4.22-28.77,10.58-39.88,21.85c-4.91,4.99-10.16,9.67-14.79,14.91c-8.61,9.73-19.26,14.85-32.09,16.47
	c-12.43,1.57-22.54,8.1-28.77,18.75c-11.44,19.54-27.81,33.92-46.36,45.9c-23.83,15.39-39.47,36.76-47.44,63.49
	c-8.53,28.63-2.87,51.65,23.37,69.4c13.34,9.03,27.88,16.29,41.23,25.3c9.95,6.71,18.93,14.88,28.22,22.53
	c3.55,2.92,6.78,6.25,10.19,9.34c18.78,17.04,39.65,16.01,60.9,6.11c12.87-5.99,24.65-14.41,37.67-19.97
	c28.38-12.13,56.95-23.92,85.99-34.32c19.58-7.01,35.88,1.23,49.14,16.14c1.84,2.07,3.41,4.46,5.51,6.2
	c10.44,8.67,17.67,6.54,21.72-7.02c3.22-10.76,6.31-21.72,7.74-32.82c3.28-25.52,18.46-38.63,42.4-43.77
	c18.88-4.05,37.26-9.48,51.56-23.47c16.36-16,29.76-34.27,30.82-57.83c0.5-11.08-4.21-22.38-6.55-33.59
	c-3.91-18.76-9.07-37.37-11.37-56.32c-2.23-18.34-0.85-37.05,5.97-54.64c8.18-21.1,14.74-42.55,18.84-64.88
	c3.98-21.65,14.43-26.26,24.86-26.35c11.19-0.09,22.56,0.99,33.57,3.06c16.81,3.17,33.3,8.07,50.09,11.41
	c17.61,3.5,35.63,4.98,53.07-0.07c22.19-6.43,37.11-22.37,49.32-41.22c11.63-17.94,13.36-37.49,9.3-57.84
	c-3.51-17.57-15.95-28.99-28.88-39.85c-15.27-12.84-32.23-22.37-52.36-24.96c-5.67-0.73-11.45-0.59-17.19-0.85"/>
<path class="st0" d="M2037.91-221.38c-2.87,0.78-5.77,1.46-8.59,2.36c-19.93,6.38-26.87,24.45-13.01,42.76
	c13.12,17.34,32.2,26.51,53.67,29.8c10,1.54,20.03-8.68,20.25-20.21c0.54-27.8-17.63-57.49-51.54-54.71"/>
<path class="st0" d="M957.66-218.25c-20.21,5.45-35.47,19.18-51.47,31.43c-10.81,8.27-20.42,18.11-30.61,27.19
	c-14.61,13.02-22.68,29.47-26.66,48.45c-5.3,25.32-9.7,50.77-10.62,76.63c-0.26,7.24,1.25,15.02,3.9,21.79
	c5.6,14.28,23.88,22.69,39.64,19.66c18.09-3.48,35.2-9.93,48.18-22.97c10.01-10.06,18.25-22.16,25.87-34.24
	c8.73-13.83,18.4-26.44,30.45-37.64c7.51-6.98,14.08-15.75,18.69-24.92c7.39-14.69,3.74-29.77-3.72-43.56
	c-9.43-17.45-19.32-34.69-29.84-51.49c-2.77-4.43-8.61-6.93-13.04-10.32"/>
<path class="st0" d="M488.66,999.57c-26.95,10.04-46.19,38.41-44.38,69.56c0.67,11.52,2.74,22.94,9.9,32.9
	c10.94,15.23,28.87,16.71,46.1,6.8c16.79-9.66,25.58-24.94,28.42-44.35c3.46-23.7-4.29-42.67-21.27-58.67
	c-5.12-4.83-11.01-7-18-6.23"/>
<path class="st0" d="M1745.57,1008.95c-26.31,4.92-47.95,20.19-71.13,32.05c-18.53,9.48-38.01,16.43-57.8,22.81
	c-17.74,5.72-25.92,12.76-28.49,36.56c-1.94,18.03,0.75,34.66,8.14,50.83c6.68,14.62,17.99,24.78,32.04,32.03
	c17.4,8.98,35.49,16.78,52.18,26.9c13.91,8.44,26.9,18.76,39.08,29.61c13.04,11.61,24.87,24.63,36.87,37.37
	c14.23,15.11,22.32,34.03,31.27,52.35c10.42,21.33,25.37,28.52,46.94,27.85c15.2-0.47,28.33-7.7,39.91-17.67
	c21.37-18.41,32.22-42.12,35.94-69.6c2.01-14.86,5.41-29.66,5.92-44.57c0.62-18.22-5.38-35.16-19.35-47.53
	c-20.35-18.02-41.2-35.51-62.5-52.39c-22.22-17.6-32.94-40.72-36.78-68.11c-1.66-11.81-4.01-23.63-11.53-33.67
	c-7.51-10.03-16.96-15.6-29.76-14.84c-3.38,0.2-6.77,0.03-10.16,0.03"/>
<path class="st0" d="M1381.31-218.25c-13.28,2.96-20.82,13.18-27.14,23.58c-10.95,18.02-20.92,36.67-30.52,55.46
	c-3.97,7.77-6.39,16.46-8.63,24.96c-1.7,6.46,5.45,20.08,12.22,23.66c10.49,5.54,21.83,7.65,32.97,7.97
	c16.11,0.46,32.48-0.52,48.4-3.06c17.85-2.84,26.45-12.8,27.93-31.75c1.25-16.06,1.85-32.48-0.11-48.4
	c-3.01-24.48-20.72-45.14-44.21-51.55c-3.22-0.88-6.75-0.61-10.14-0.87"/>
<path class="st0" d="M171.31,1015.2c-25,7.16-38.75,24.19-43.85,49.23c-2.89,14.16-2.16,28.19,0.15,42.21
	c1.43,8.66,2.86,17.44,5.54,25.76c7.01,21.79,15.97,24.33,36.65,27.89c12.49,2.15,25.52,2.2,38.24,1.65
	c16.25-0.71,32.51-2.9,46.88-11.55c18.49-11.12,29.63-26.86,29.74-49.2c0.05-10.2-4.6-18.9-11.14-25.61
	c-21.6-22.16-45.42-41.67-73.31-55.64c-8.82-4.42-18.38-5.33-28.12-4.73"/>
<path class="st0" d="M22.79-204.18c-11.4,3.16-20.93,9.38-28.9,17.99c-11.53,12.45-23.14,24.83-34.35,37.55
	c-10.33,11.72-11.38,26.44-9.07,40.54c2.83,17.29,7.61,34.23,15.83,50.2c8.66,16.82,22.63,23.21,40.09,24.02
	c16.7,0.77,33.52,1.05,49.22-6.2c10.79-4.98,21.29-10.6,32.09-15.54c15.28-6.98,30.72-13.61,46.09-20.37
	c14.07-6.19,26.22-15.12,34.24-28.23c11.23-18.38,5.55-38.35-8.49-55.37c-10.48-12.69-25.29-17.2-40.56-21.3
	c-18.93-5.09-37.63-11.08-56.3-17.12c-12.77-4.13-25.53-7.54-39.11-6.18"/>
<path class="st0" d="M498.04,396.13c-28.75,11-44.56,33.33-52.07,61.83c-2.83,10.75,1.1,21.93,8.44,30.27
	c19.69,22.38,43.46,37.52,74.07,41.06c12.95,1.5,25.15,1.16,37.58-2.53c14.33-4.25,28.29-20.12,28.18-39.18
	c-0.06-10.05-0.36-19.72-5.38-29.01c-4.33-8.02-10.52-13.98-18.23-17.71c-18.51-8.95-34.45-21.36-49.98-34.52
	c-6.28-5.32-13.28-9.56-21.84-10.21"/>
<path class="st0" d="M1729.93,1041.78c-31.97,7.59-58.55,25.49-84.33,44.68c-9.58,7.13-18.28,15.29-21.32,27.99
	c-4.54,18.95,1.77,34.5,16,45.84c12.64,10.07,26.9,18.43,41.3,25.87c17.1,8.83,31.94,20.44,45.06,34
	c28.19,29.14,61.28,51.19,97.2,69.18c8.45,4.23,17.64,8.2,28.04,6.6c13.13-2.02,20.72-10.53,26.51-21.24
	c6.82-12.62,9.63-26.62,9.91-40.62c0.3-14.95-4.5-29.42-14.75-40.46c-15.41-16.59-31.11-33.18-48.52-47.56
	c-22.41-18.51-39.62-39.94-49.05-67.51c-1.66-4.84-4.02-9.44-6.21-14.08c-7.79-16.53-20.78-24.18-39.07-22.68"/>
<path class="st0" d="M1823.73,383.62c-5.99,1.82-12.62,2.58-17.85,5.68c-12.98,7.71-17.18,20.69-20.91,34.84
	c-3.98,15.12,5.64,36.05,17.62,43.16c7.92,4.7,17.11,5.8,24.93,3.48c23.75-7.05,42.76-21.36,54.69-43.47
	c7.58-14.04,2.56-27.97-11.61-35.06c-14.5-7.25-30.02-9.54-46.1-8.64"/>
<path class="st0" d="M620.76-194.02c-11.72,4.17-23.54,8.11-35.16,12.55c-25.35,9.7-51.53,16.17-78.17,21.13
	c-19.13,3.56-38.16,7.64-55.52,17.11c-15.57,8.5-26.39,20.67-30.51,38.31c-2.26,9.69,0.3,18.85,4.1,27.29
	c11.47,25.45,25.69,49.3,46.02,68.79c21.54,20.65,34.41,46.42,45.29,73.54c8.05,20.06,18.64,38.71,31.18,56.33
	c10.98,15.42,21.51,31.17,32.09,46.87c10.66,15.82,24.97,26.52,42.98,32.92c19.28,6.85,36.84,16.76,52.51,30.26
	c15.68,13.5,33.65,24.27,46.86,40.71c10.57,13.16,16.43,28.15,18.6,44.62c1.49,11.35-8.6,22.74-21.01,25.03
	c-17.6,3.26-34.92-0.07-52.4-1.34c-9.27-0.67-18.75,1.21-28.12,2.11c-17.23,1.66-34.36,5.17-51.64-0.66
	c-11.05-3.73-19.23-11.26-28.14-18.06c-12.59-9.61-24.75-20.14-38.47-27.81c-12.61-7.05-27.2-10.28-41.99-10.52
	c-10.68-0.17-21.36,0-32.05-0.04c-14.42-0.06-28.9,12.15-32.78,29.72c-3.38,15.32-5.84,30.85-9.53,46.08
	c-6.91,28.5-21.71,52.9-40.53,75.08c-6.11,7.2-12.27,14.38-17.94,21.91c-14.14,18.76-9.74,35.13,3.9,51.51
	c11.67,14,27.65,21.43,44.55,26.48c29.56,8.83,59.16,17.67,89.13,24.9c27.59,6.65,55.62,11.63,83.6,16.5
	c17.04,2.97,34.37,4.27,51.56,6.43c14.99,1.89,25.48,12.08,29.75,28.11c4.24,15.94,7.71,32.23,13.61,47.55
	c4.39,11.4,11.09,22.32,18.61,32.02c16.57,21.38,27.72,44.87,33.51,71.27c6.02,27.43,23.2,46.88,46.82,60.92
	c11.22,6.67,22.96,12.44,34.33,18.86c20.05,11.32,33.45,29.19,46.07,47.7c4.68,6.87,10.08,13.62,18.77,12.11
	c8.79-1.53,13.6-9.04,15.64-17.64c1.59-6.71,3.74-13.53,3.78-20.31c0.15-28.18,9.31-52.29,29.86-71.94
	c20.35-19.46,39.65-39.86,55.57-63.26c10.48-15.4,19.53-31.58,22.36-50.09c1.81-11.84-2.51-22.83-10.66-32.02
	c-12.22-13.77-27.76-22.98-43.85-31.13c-19.54-9.9-39.48-19.01-59.36-28.23c-18.08-8.39-26.4-22.37-26.7-42.24
	c-0.34-22.92-9.47-42.26-25.56-58.73c-12.49-12.79-25.43-25.51-35.72-40.01c-13.3-18.73-17.8-40.96-16.59-63.85
	c0.71-13.35,7.82-22.93,20.94-27.37c16.94-5.73,34.01-11.09,50.77-17.29c18.55-6.86,34.94-17.52,48.41-32.04
	c12.55-13.53,13.73-27.57,0.04-42.08c-8.59-9.11-17.71-17.72-26.52-26.63c-12.45-12.61-19.51-28.31-25.88-44.51
	c-5.38-13.69-10.68-27.48-17.31-40.58c-7.53-14.87-21.3-24.59-33.63-35.02c-11.63-9.84-21.12-21.4-26.74-34.81
	c-9.79-23.36-17.64-47.6-25.16-71.82c-3.31-10.66-3.09-22.12-2.92-33.54c0.3-20.36,3.24-41.14-4.4-60.95
	c-9.99-25.92-27.06-46.64-47.57-64.98c-11.39-10.19-21.86-21.39-32.95-31.92c-7.05-6.69-14.37-13.16-24.97-13.33"/>
<path class="st0" d="M1781.52,342.98c-4.69,1.3-9.63,2.05-14.02,4.02c-10.34,4.63-16.8,13.03-21.22,23.31
	c-2.76,6.41-5.55,12.97-9.45,18.7c-7.33,10.78-19.13,12.97-31.1,15.09c-12.37,2.19-24.7,4.99-36.72,8.59
	c-16.12,4.84-25.45,17.03-32.17,31.87c-6.69,14.75-13.39,29.55-21.16,43.74c-13.93,25.44-37.77,36.63-64.77,42.18
	c-17.87,3.67-35.88,6.73-53.93,9.33c-9.52,1.37-19.31,0.73-28.88,1.84c-10.15,1.18-20.91,0.97-28.97,9.22
	c-4.74,4.85-6.47,10.56-7.13,17.22c-1.6,16.21,2.99,31.57,6.69,46.84c3.71,15.29,2.99,29.72-0.95,44.67
	c-3.67,13.92-4.93,28.17,3.07,41.33c1.97,3.25,4.78,6.22,7.79,8.58c9.45,7.4,18.24,2.23,23.32-6.99c2.47-4.48,4.82-9.18,6.22-14.06
	c5.36-18.68,18.12-29.09,36.01-35.27c40.27-13.92,80.09-29.14,120.52-42.55c15.25-5.06,31.61-7.01,47.59-9.58
	c21.51-3.46,43.15-5.89,60.99-20.38c10.94-8.89,18.97-20.12,25.58-32.19c7.17-13.08,13.85-26.33,28.36-32.62
	c8.06-3.5,16.8-5.42,24.93-8.79c34.69-14.36,65.53-34.67,88.84-64.26c14.31-18.15,18.8-39.91,12.85-63.09
	c-4.18-16.28-15.06-21.82-29.78-24.01c-16.54-2.46-33.34-3.15-49.99-4.96c-11.24-1.22-22.4-3.16-33.62-4.59
	c-9.36-1.19-18.76-2.12-28.14-3.16"/>
<path class="st0" d="M1722.9,1078.52c-26.79,4.07-41.99,21.33-50.63,45.4c-2.23,6.23-0.26,13.15,4.62,17.79
	c7.37,6.99,15.07,13.8,23.42,19.53c18.24,12.54,32.24,29.24,46.83,45.45c17.62,19.58,39.09,32.18,65.64,35.18
	c5.72,0.65,11.64,2.21,17.16,1.37c17.67-2.67,24.7-14.49,18.4-31.69c-3.9-10.67-10.45-20.93-17.88-29.6
	c-9.78-11.42-21.03-21.79-32.68-31.34c-16.07-13.17-29.18-28.48-39.85-46.21c-3.9-6.47-8.88-12.4-14.04-17.96
	c-5.29-5.69-12.59-7.53-20.22-7.91"/>
<path class="st0" d="M707.52,1087.12c-16.77,4.34-28.61,15.94-38.05,29.1c-19.56,27.26-44.41,49.4-67.42,73.34
	c-9.55,9.94-17.86,20.77-21.99,34.33c-3.46,11.35-0.09,18.17,10.97,22.77c10.74,4.47,22.14,4.32,32.81,2.66
	c20.01-3.11,39.91-7.6,59.4-13.14c22.17-6.31,38.05-21.32,49.28-41.21c11.48-20.34,17.7-42.19,16.23-65.63
	c-0.49-7.9-2.51-16.01-5.45-23.39c-6.23-15.63-18.83-20.89-34.98-18.84"/>
<path class="st0" d="M2091.06,1104.31c-15.14,5.87-24.74,25.04-17.14,42.97c3.05,7.18,6.37,14.29,10.17,21.09
	c11.1,19.87,8.18,38.98-2.4,57.89c-8.14,14.56-16.68,28.92-24.08,43.85c-5.64,11.37-7.36,23.9-6.42,36.66
	c0.73,9.8,8.36,18.32,19.55,21.05c17.33,4.22,33.55,1.28,48.44-8.56c16.94-11.18,31.3-25.09,42.13-42.25
	c10.78-17.08,11.54-35.76,9.01-55.48c-2.22-17.28-7.45-32.89-17.6-46.8c-5-6.86-11.4-12.72-16.2-19.69
	c-6.76-9.81-12.63-20.24-18.89-30.39c-2.58-4.18-4.98-8.5-7.87-12.47c-4.37-6.01-10.28-9.04-17.93-7.85"/>
<path class="st0" d="M1148.38,321.09c-15.5,2.52-27.99,11.55-41.57,18.48c-16.08,8.21-33.2,14.37-49.89,21.38
	c-21.9,9.19-30.76,27.94-35.9,49.26c-2.7,11.19-2.16,22.38,0.65,33.62c4.52,18.1,17.71,28.06,33.79,33.27
	c21.72,7.04,43.93,13.32,66.41,17.07c20.67,3.45,35.83-3.04,43.35-26.24c5.21-16.08,7.12-33.24,10.51-49.91
	c2.86-14.07,6.03-28.09,8.51-42.23c2.26-12.93,1.99-26.05-3.2-38.22c-5.88-13.8-17.82-17.62-31.89-16.48"/>
<path class="st0" d="M-219.52,285.14c-17.73,4.95-28.66,18.25-39.04,32.08c-8.5,11.33-16.81,22.98-18.62,37.51
	c-0.63,5.07-0.24,10.81,1.56,15.54c11.84,31.22,22.32,63.09,40.48,91.51c8.09,12.66,18.22,22.98,31.98,29.83
	c18.08,9.01,36.15,6.77,53.92,0.47c13.51-4.79,25.22-12.64,30.56-27.16c4.62-12.55,5.79-25.36,2.29-38.29
	c-8.92-32.95-19.12-65.49-34.45-96.1c-8.83-17.63-22.15-31.21-39.67-40.86c-9.15-5.04-18.6-4.46-28.23-4.53"/>
<path class="st1" d="M1134.31,261.69c-4.95,0.52-9.93,0.85-14.85,1.6c-14.61,2.24-29.31,4.09-43.74,7.16
	c-14.29,3.04-25.88,11.67-35.88,21.83c-19.13,19.44-37.27,39.85-56.56,59.13c-7.82,7.82-17.5,13.78-26.42,20.47
	c-5.38,4.03-11.05,7.68-16.37,11.78c-14.73,11.33-12.31,29-3.1,40.58c9.68,12.16,19.98,23.83,29.58,36.06
	c6.91,8.81,13.4,17.98,19.55,27.34c9.69,14.76,24.51,20.42,40.74,22.45c26.92,3.37,53.14,9.61,78.06,19.92
	c44.01,18.21,76.72-4.83,90.42-40.98c4.73-12.48,5.61-26.44,8.14-39.74c2.42-12.75,4.64-25.54,7.07-38.3
	c4.82-25.33,6.5-50.91,5.29-76.6c-0.58-12.29-2.14-24.67-4.7-36.71c-4.92-23.18-21.43-34.85-45.17-35.91
	c-10.4-0.47-20.84-0.08-31.26-0.08"/>
<path class="st1" d="M-228.9,257c-16.12,3.5-28.22,13.25-39.1,25c-15.39,16.6-30.58,33.19-40.8,53.87
	c-8.43,17.05-7.08,33.03,2.61,48.49c12.39,19.77,25.4,39.17,38.23,58.67c8.26,12.56,16.48,25.15,25.04,37.5
	c16.59,23.92,40.12,37.74,68.02,43.55c19.49,4.06,31.91,15.06,38.12,33.12c8.08,23.51,23.43,40.86,43.97,53.78
	c16.11,10.13,29.22,23.19,41.49,37.52c8,9.35,17.1,17.79,28.78,22.8c24.13,10.35,48.19-1.66,60.8-18.14
	c5.76-7.52,10.8-16.09,14-24.96c7.28-20.16,20.19-35.09,37.68-46.94c8.08-5.48,15.82-11.77,22.64-18.74
	c18.99-19.42,16.54-43.79-5.41-59.21c-17.05-11.98-36.28-18.88-57.01-21.12c-12.99-1.4-26.05-3-39.08-2.99
	c-18.18,0.01-31.7-7.16-43.23-21.12c-9.81-11.88-21.43-22.31-32.66-32.96c-11.73-11.13-22.36-23.11-29.55-37.63
	c-10.25-20.67-19.45-41.87-29.89-62.44c-18.09-35.66-47.54-57.35-85.93-67.11c-5.69-1.45-11.94-0.69-17.94-0.95"/>
<path class="st0" d="M1201.53,1202.8c-26.85,6.58-46.89,22.65-61.67,45.39c-17.71,27.24-16.98,55.33-0.62,82.66
	c6.31,10.54,14.3,20.65,23.46,28.78c13.44,11.92,19.65,8.45,33.22,1.59c10.3-5.21,19.46-12.7,29.04-19.3
	c20.51-14.13,43.36-19.92,68.01-18.65c8.89,0.46,17.7,2.58,26.59,2.9c14.3,0.5,22.84-10.68,20.39-24.89
	c-4.29-24.85-16.38-42.14-41.34-51.23c-18.62-6.79-35.13-18.51-51.12-30.63c-7.72-5.85-16.72-10.4-25.76-13.98
	c-5.9-2.33-12.91-1.86-19.43-2.64"/>
<path class="st0" d="M247.91,242.93c-10.68,3.13-21.6,5.63-32,9.52c-17.13,6.41-25.81,20.79-29.43,37.45
	c-3.15,14.51-4.29,29.6-4.82,44.49c-0.77,21.68,8.11,31.4,29.52,33.5c11.41,1.12,22.96,2.03,34.37,1.47
	c18.98-0.93,37.26-4.85,52.4-17.75c12.64-10.78,20.01-24.46,22.6-40.68c5.29-33.07-16.49-59-46.11-65.49
	c-8.37-1.83-17.16-1.72-25.76-2.51"/>
<path class="st0" d="M285.43,1223.12c-8.86,1.04-17.72,2.04-26.58,3.13c-35.09,4.33-61.12,19.95-72.85,59.35
	c-8.36,28.09,7.38,50.14,28.35,62.48c16.02,9.43,33.38,14.56,52.31,14.26c26.35-0.41,37.08-13.21,42.77-30.65
	c4.22-12.93,7.12-26.39,9.41-39.83c2.38-13.93,4.16-28.08,4.66-42.19c0.65-18.53-7.87-24.46-21.67-25.05
	c-5.22-0.22-10.42-0.99-15.64-1.52"/>
<path class="st0" d="M1201.53,1235.63c-24.16,8.57-40.5,30.55-39.76,54.71c0.57,18.63,14.8,34.8,35.88,28.22
	c18.29-5.71,35.21-14.15,50.68-25.23c9.05-6.48,10.29-14.17,4.7-24.04c-7.22-12.75-17.1-22.99-30.35-29.83
	c-6.52-3.37-13.27-4.2-20.36-3.83"/>
<path class="st0" d="M1501.69,1235.63c-3.65,0.78-7.28,1.65-10.95,2.33c-31.2,5.79-49.27,42.57-41.3,69.54
	c5.26,17.8,15.68,28.97,35.86,31.01c6.06,0.61,12.97-1.22,18.64-3.8c24.92-11.32,40.89-30.12,45.4-57.66
	c2.73-16.66-11.72-36.66-28.92-39.77c-5.89-1.07-11.97-1.13-17.96-1.65"/>
<path class="st0" d="M35.3-169.79c-24.88,7.02-39,24.43-45.19,48.5c-5.74,22.3,10.79,48.68,35.8,50.28
	c10.5,0.67,20.19-0.29,29.71-4.22c18.79-7.75,37.7-15.23,56.19-23.65c6.1-2.78,11.76-7.45,16.36-12.43
	c8.53-9.23,5.54-24.68-3.62-31.31c-9.62-6.97-20.68-9.93-31.44-13.78c-12.87-4.61-25.9-8.89-39.1-12.4
	c-5.66-1.51-11.93-0.73-17.92-0.99"/>
<path class="st0" d="M-360.22,508.69c-15.74,6.26-23.44,19.86-31.36,33.56c-9.98,17.27-14.52,35.95-16.35,55.55
	c-1.42,15.13-3.55,30.2-4.41,45.35c-0.29,5.12,1.2,11.12,3.9,15.46c5.01,8.05,13.8,8.25,21.56,5.43
	c14.58-5.3,28.87-11.49,43.03-17.86c16.05-7.22,31.72-15.25,47.74-22.53c20.3-9.23,23.93-22.28,15.52-41.45
	c-11.04-25.17-27.54-46.22-49.08-63.45c-8.9-7.12-18.28-11.35-29.78-10.06"/>
<path class="st0" d="M254.16,1246.57c-12.81,2.98-24.26,8.31-32.85,18.75c-9.29,11.29-14.85,31.57-6.53,47.84
	c9.12,17.85,46.07,33.79,65.13,17c3.44-3.03,7.34-6.22,9.24-10.2c8.16-17.03,12.22-34.93,7.95-53.84
	c-2.73-12.05-12.4-19.41-24.96-19.54c-5.73-0.06-11.46-0.01-17.2-0.01"/>
<path class="st0" d="M1378.19-165.1c-12.17,3.68-18.12,13.27-21.76,24.27c-5.79,17.5,4.8,26.87,22.51,23.98
	c8.79-1.43,15.29-7.03,18.05-16.2c3.01-9.99,1.9-19.15-4.75-27.36c-3.42-4.23-8.11-5.22-13.27-4.7"/>
<path class="st0" d="M1784.65-151.03c-4.95,1.56-9.98,2.91-14.83,4.74c-8.52,3.22-11.92,10.18-12.49,18.71
	c-0.89,13.33-4.69,25.48-13.3,35.98c-7.05,8.6-11.94,18.66-11.47,29.67c0.62,14.69,5.34,28.46,15.35,39.88
	c23.96,27.33,68.33,14.99,80.39-17.25c4.75-12.71,5.53-26.25,5.69-39.82c0.12-9.83,1.46-19.72,8.6-27.27
	c4.42-4.67,9.79-8.44,14.76-12.59c2.84-2.37,5.84-4.57,8.57-7.07c4.09-3.73,8.14-7.82,6.2-14.02c-1.88-6-9.83-10.92-17.11-10.94
	c-23.19-0.07-46.38-0.03-69.57-0.03"/>
<path class="st0" d="M-397.74,1276.28c-12.44,2.69-24.28,6.58-34.46,14.76c-5.37,4.31-10,9-11.56,15.74
	c-1.88,8.12,2.43,15.64,13.27,18.45c18.9,4.9,38.18,5.17,54.51-7.69c12.71-10.01,14.72-27.55,0.64-36.95
	c-5.65-3.77-14.32-3.01-21.62-4.31"/>
<path class="st0" d="M279.18,554.03c-19.63,5.28-26.71,21.22-31.97,38.32c-7.06,22.95,1.9,40.95,17.83,57.12
	c23.95,24.31,38.17,53.58,43.18,87.45c2.21,14.95,4.46,30.07,8.77,44.49c6.04,20.25,20.63,34.42,37.13,47.13
	c19.49,15.02,38.06,31.24,57.2,46.72c17.69,14.31,17.68,33.31,9.71,51.44c-7.7,17.53-18.83,33.55-28.51,50.2
	c-5.91,10.16-8.85,21.18-9.32,32.84c-0.26,6.5-0.4,13.05,0.01,19.54c2.04,31.78-3.3,62.6-11.81,93.01
	c-4.59,16.38-7.73,32.88-7.1,50.04c0.39,10.53,4.26,18.86,14.24,22.46c8.5,3.07,17.56,4.9,26.52,6.36
	c32.31,5.26,59.04-9.61,86.03-24.02c17.8-9.5,35.9-18.24,51.6-31.3c19.82-16.49,37.01-35.14,49.07-57.99
	c9.9-18.75,18.98-37.93,28.21-57.02c8.9-18.42,23.03-30.74,42.24-37.52c31.55-11.14,63.12-22.21,94.54-33.72
	c7.61-2.79,15.57-6.02,21.75-11.04c15.09-12.28,16.78-29.06,11.8-46.64c-5.08-17.89-17.45-30.57-31.92-41.47
	c-12.03-9.06-23.68-18.66-36.03-27.25c-21.7-15.1-37.92-34.49-48.4-58.72c-9.39-21.72-26.19-36.82-44.45-50.94
	c-14-10.83-24.99-24.36-33.11-40.42c-6.95-13.73-14.32-27.52-23.53-39.76c-13.93-18.51-34.44-27.56-56.83-29.58
	c-35.91-3.25-69.11-14.92-102.48-27.37c-23.12-8.63-47.21-14.71-71.05-21.29c-14.67-4.05-29.61-7.19-44.55-10.14
	c-5.82-1.15-11.96-0.67-17.95-0.93"/>
<path class="st0" d="M-214.83-146.34c-15.44,5.47-18.58,12-14.94,28.16c4.54,20.19,17.67,34.32,32.14,47.66
	c10.05,9.26,20.92,17.37,33.63,22.63c9.65,3.99,19.5,5.39,28.88-0.77c8.93-5.87,13.32-22.08,9.38-34.35
	c-7.97-24.85-25.43-40.9-48.46-51.56c-12.68-5.87-25.7-10.79-39.85-11.76"/>
<path class="st1" d="M559.01-140.09c-8.08,1.04-16.13,2.28-24.24,3.09c-17.71,1.76-35.57,2.78-52.35,9.46
	c-22.42,8.92-30.21,24.25-26.96,42.1c2.52,13.83,9.68,26.61,20,36.72c8.69,8.52,17.71,16.82,27.37,24.19
	c14.74,11.25,21.42,26.87,25.62,43.92c5.01,20.32,8.89,41.01,19.7,59.34c4.47,7.58,9.11,15.27,14.9,21.82
	c19.3,21.8,39.68,42.68,66.4,55.44c15.69,7.49,32.17,13.35,48.39,19.69c36.46,14.25,65.51,37.11,84.41,71.94
	c8.06,14.86,16.14,29.71,24.23,44.55c5.76,10.56,15.6,15.33,26.59,17.89c12.42,2.89,32.97-8.19,36.4-20.32
	c1.4-4.93,0.46-11.34-1.53-16.21c-2.76-6.72-6.86-13.18-11.56-18.78c-15.59-18.57-24.64-40.8-35.99-61.77
	c-5.62-10.38-11.29-21.57-19.67-29.49c-31.41-29.68-54.52-65.7-79.34-100.43c-8.37-11.71-10.56-26.03-13.28-39.81
	c-2.65-13.44-3.55-27.24-6.57-40.58c-3.46-15.3-2.79-30.39,0.31-45.35c7.2-34.75-8.18-54.5-36.88-66.41
	c-22.75-9.44-46.67-12.04-71.11-11.03c-4.68,0.19-9.38,0.03-14.07,0.03"/>
<path class="st0" d="M912.32-122.89c-19.89,5.35-29.27,20.89-35.73,38.38c-3.59,9.7-5.52,20.15-7.08,30.43
	c-1.39,9.18,1.2,18.48,10.13,22.3c9.07,3.88,18.78,1.26,26.35-5.22c13.11-11.23,21.02-25.63,22.61-42.91
	c0.76-8.27,0.54-16.69,0.02-24.99c-0.6-9.63-5.53-16.15-15.53-17.98"/>
<path class="st0" d="M601.22-72.86c-12.04,7.25-17.88,19.29-23.35,31.31c-8.78,19.29-13.43,39.61-11.72,60.91
	c0.9,11.21,2.54,22.55,9.33,32.01c13.68,19.04,32.62,17.3,46.01,0c15.72-20.31,19.07-42.84,11.02-67.19
	c-4.81-14.55-9.13-29.27-14.17-43.74c-4.64-13.34-7.84-14-16.34-13.32"/>
<path class="st0" d="M-264.86-19.71c-24.49,5.38-29.28,35.7-15.44,54.58c10.29,14.04,24.89,22.64,42.79,21.83
	c25.85-1.16,36.09-18.93,26.54-42c-7.31-17.67-20.38-29.1-39.06-33.51c-4.5-1.06-9.35-0.64-14.04-0.9"/>
<path class="st0" d="M251.04-7.2c-14.85,5.73-29.4,12.52-44.65,16.87c-12.84,3.66-26.44,5.93-39.78,6.3
	c-34.28,0.94-66.57,9.19-97.7,22.94C54.58,45.23,40.43,51.72,29.79,63.9C18.67,76.64,16.65,91.3,17.83,107.72
	c1.44,20.09,15.44,27.34,30.81,33.46c13.3,5.3,26.94,9.85,40.62,14.12c20.35,6.34,39.73,1.26,57.71-7.94
	c26.98-13.81,53.33-28.86,79.81-43.61c20.47-11.4,42.46-15.8,65.68-15.72c6.25,0.02,12.8-0.53,18.7-2.42
	c11.38-3.64,18-16.14,13.89-28.65c-6.8-20.68-16.65-39.7-34.04-54.15C279.25-6.95,265.85-7.69,251.82-7.2"/>
<path class="st0" d="M1953.49,8.43c-24.15,4.8-44.75,17.2-64.85,30.53c-16.36,10.86-33.9,18.58-53.17,22.7
	c-27.53,5.89-53.39,16.94-79.8,26.36c-16.56,5.91-33.91,8.47-51.54,9.6c-46.98,3.01-78.62,27.45-96.99,70.24
	c-4.79,11.16-10.62,21.74-21.03,28.97c-15.69,10.89-37.51,5.4-48.48-13.31c-4.14-7.05-8.17-14.18-12.53-21.09
	c-16.29-25.8-52.31-25.03-70.91-6.09c-8.92,9.08-16.76,19.56-23.43,30.43c-11.93,19.44-27.82,34.28-47.07,46.04
	c-13.68,8.36-27.9,16.42-36.68,30.49c-11.21,17.98-10.6,50.07,7.72,64.04c10.25,7.82,21.9,9.66,34.4,8.63
	c18.82-1.56,36.14-8.64,53.95-14.03c26.37-7.98,35.49,2.89,43.69,23.4c3.27,8.18,5.92,16.61,8.64,24.99
	c5.99,18.44,20.95,21.6,35.15,14.74c22.34-10.8,44.47-22.07,66.44-33.61c9.71-5.1,18.92-11.2,28.14-17.17
	c3.21-2.08,5.89-5.02,8.64-7.75c18.79-18.73,37.07-38,56.44-56.1c15.79-14.75,27.05-32.9,40.52-49.39
	c8.89-10.88,20.72-17.05,34.39-18.61c15.55-1.77,31.28-1.88,46.87-3.37c37.45-3.58,71.41-15,98.62-42.79
	c15.72-16.06,33.06-30.51,48.99-46.37c10.31-10.26,19.62-21.53,24.41-35.81c5.25-15.67,6.49-31.6,2.97-47.67
	c-2.47-11.26-11.81-17.99-23.34-18c-3.13,0-6.25,0-9.38,0"/>
<path class="st0" d="M1245.3,41.26c-13.82,3.53-25.28,11.2-35.97,20.3c-20.41,17.38-44.05,19.24-69.59,15.98
	c-17.5-2.23-35.39-1.77-53.11-1.78c-18.46-0.02-36.08,4.06-52.39,13.14c-10.52,5.86-18.42,13.61-13.3,29.75
	c0.72,2.28,0.67,4.87,1.65,7c10.25,22.08,8.1,44.04-2.65,64.78c-10.72,20.7-16.8,42.77-22.29,65.03
	c-9.98,40.47-33.2,70.49-68.89,91.47c-19.17,11.27-36.55,24.59-45.31,46.09c-5.7,14-5.7,28.02,4.81,39.68
	c8.24,9.13,17.71,17.26,27.26,25.08c15.65,12.81,25.65,29.21,32.8,47.76c3.65,9.48,7.56,18.87,11.73,28.13
	c6.34,14.08,25.18,23.7,43.8,19.09c12.89-3.19,26.47-3.89,39.8-4.89c17.77-1.33,34.01,4.36,50.1,11.44
	c12.11,5.33,24.86,9.25,37.46,13.41c14.83,4.9,28.59-0.12,39.6-8.85c21.47-17.02,41.01-36.22,53.45-61.42
	c6.24-12.64,7.5-26.3,9.32-39.89c1.85-13.81,3.72-27.61,5.46-41.43c2.84-22.59,5.25-45.05,2.77-68.05
	c-1.46-13.57,0.94-27.59,1.99-41.38c1.54-20.32,3.5-40.48,1.01-61.01c-2.48-20.41-6.04-41.04-1.81-61.71
	c4.16-20.33,15.03-36.34,31.13-49.38c9.94-8.05,19.93-16.36,25.14-28.78c12.35-29.45-4.64-51.96-24.98-64.22
	c-8.95-5.4-18.41-5.67-28.21-5.36"/>
<path class="st0" d="M122.85,47.51c-9.9,2.61-19.99,4.65-29.65,7.98C84.39,58.53,77,64,71.16,71.67C64.79,80.04,64.51,88.71,69,97.5
	c9.53,18.64,25.59,27.81,46.03,27.81c7.3,0,14.87-3.69,21.83-6.79c15.27-6.79,26.4-18.85,35.84-32.05
	c10.74-15.01,6.15-26.27-11.53-32.76c-12.17-4.47-24.62-6.62-37.54-6.19"/>
<path class="st0" d="M1919.09,55.33c-15.11,5.99-30,12.67-45.4,17.78c-14.55,4.83-29.69,7.81-44.48,11.97
	c-24.71,6.95-45.08,20.45-60.16,41.41c-5.5,7.64-4.41,13.31,3.92,17.05c16.13,7.24,33.1,11.34,50.73,13.64
	c14.23,1.85,27.75,0.74,40.6-5.09c7.72-3.5,15.54-7.72,21.8-13.3c17.97-16.03,36.25-32.04,47.71-53.82
	c2.49-4.73,4.22-10.28,4.62-15.58c0.8-10.68-3-14.04-13.87-14.05c-1.56,0-3.13,0-4.69,0"/>
<path class="st0" d="M443.32,67.84c-16.16,5-19.01,19.56-22.48,32.88c-5.68,21.81-9.27,44.18-18.91,64.85
	c-3.11,6.66-6.15,13.4-8.55,20.33c-4.46,12.86-1.5,21.73,10.13,28.81c16.04,9.75,33.17,16.08,52.3,17.52
	c17.22,1.3,32.92-1.46,47.73-10.35c14.58-8.76,21.65-22.64,21.25-38.34c-0.3-11.8-4.34-24.44-9.94-34.98
	c-10.63-20-23.27-38.97-35.74-57.93c-4.09-6.21-9.8-11.6-15.59-16.37c-5.39-4.44-11.87-7.52-19.41-6.41"/>
<path class="st0" d="M2116.07,100.67c-19.87,2.13-29.19,15.84-34.23,32.88c-7.59,25.65-23.95,43.75-45.36,58.77
	c-14.95,10.48-29.28,22.19-39.92,37.38c-10.97,15.65-19.57,32.23-18.94,52.32c0.5,15.8,11.73,25.03,27.44,21.02
	c19.11-4.88,38.06-10.36,57.08-15.55c18.23-4.97,36.39-10.26,54.74-14.74c14.01-3.42,21.31,0.6,28.09,13.96
	c4.87,9.61,9.88,19.12,21.14,22.61c8.79,2.73,17.14,0.54,24.11-4.79c7.04-5.38,5.94-16.16-1.45-23.31
	c-7.01-6.79-16.3-10.14-25.08-11.26c-15.17-1.93-22.6-8.92-24.31-23.89c-1.78-15.67-3.3-31.11-0.84-46.94
	c2.51-16.21,11.38-29.19,18.89-43c3-5.52,5.39-11.38,7.86-17.17c4.01-9.42,1.32-17.3-9.32-25.04c-11.71-8.53-25.2-11.43-39.11-13.25
	"/>
<path class="st0" d="M-166.37,114.73c-13.27,4.72-14.62,23.56-6.15,35.89c1.93,2.81,4.82,5.26,7.78,7
	c5.96,3.5,14.79-0.28,16.29-6.94c2.25-10.03,0.46-19.77-3.95-28.86c-2.51-5.16-6.88-8.29-13.18-7.09"/>
<path class="st0" d="M1122.58,121.77c-3.91,0.52-8.13,0.27-11.67,1.69c-17.47,7.05-19.43,21.62-17.31,38.96
	c1.93,15.81,11.76,24.43,25.89,28.8c11.71,3.62,23.36,7.1,35.89,8.29c19.04,1.81,30.47-11.03,34.23-24.65
	c4.16-15.06-0.66-25.05-13.85-34.37c-15.76-11.14-32.9-18.15-52.39-18.73"/>
<path class="st0" d="M-14.73,133.49c-27.86,7.35-30.79,31.66-25.6,56.24c2.19,10.35,7.98,19.7,19.38,21.7
	c12.63,2.21,23.65-2.28,31.18-13.09c10.96-15.73,11.24-33.28,6.03-50.69C13,136.71,7.73,134.99-3.79,133.56
	c-3.34-0.42-6.77-0.06-10.15-0.06"/>
<path class="st0" d="M1686.16,139.75c-25.73,5.12-40.55,21.86-50.26,45.24c-5.39,12.98-10.94,26.17-20.8,36.9
	c-9.59,10.43-22.14,13.9-35.25,16.31c-9.6,1.77-19.31,3-28.91,4.77c-16.11,2.98-26.54,15.62-26.67,33.57
	c-0.1,13.33,2.92,25.51,10.2,36.77c10.68,16.52,24.94,19.21,43.03,16.34c19.4-3.08,34.45-14.18,45.87-29.08
	c13.6-17.75,28.74-33.73,45.57-48.29c13.44-11.62,20.92-27.16,28.28-42.91c7.54-16.14,16.02-31.85,24.12-47.73
	c6.05-11.87,4.45-16.4-8.65-19.34c-8.35-1.87-17.15-1.77-25.75-2.55"/>
<path class="st0" d="M473.03,325.78c-14.3,3.14-20.09,14.33-23.26,26.63c-5.53,21.42-15.71,40.5-26.7,59.4
	c-9.73,16.73-18.92,33.78-28.19,50.78c-11.64,21.36-3.59,38.17,14.88,45.98c35.71,15.1,70.15,33.81,108.64,41.34
	c15.9,3.11,32.25,5.15,48.43,5.34c17.95,0.22,34.98-5.05,49.22-16.88c10.71-8.9,16.8-20.61,17.06-34.37
	c0.53-27.87,0.73-55.77-0.08-83.63c-0.41-14.35-7.54-23.66-24.78-27.34c-8.04-1.71-16.13-3.23-24.23-4.7
	c-15.47-2.81-26.88-11.79-36.77-23.43c-14.7-17.31-30.8-32.95-53.94-38.16c-6.26-1.41-12.99-0.69-19.5-0.96"/>
<g>
</g>
<g>
</g>
<g>
</g>
<g>
</g>
<g>
</g>
<g>
</g>
<g>
</g>
<g>
</g>
<g>
</g>
<g>
</g>
<g>
</g>
<g>
</g>
<g>
</g>
<g>
</g>
<g>
</g>
</svg>
